<svg width="160" height="160" viewBox="0 0 160 160" fill="none" xmlns="http://www.w3.org/2000/svg" role="img" aria-labelledby="browser-title">
  <title id="browser-title">Browser illustration</title>
  <rect x="40" y="33" width="78" height="78" rx="4" fill="#8FA7A0" fill-opacity=".76"/>
  <circle cx="108" cy="101" r="27" fill="#E8B7A1" fill-opacity=".48"/>
  <g fill="#2A211B" fill-opacity=".22">
    <circle cx="34" cy="71" r="1.8"/><circle cx="46" cy="71" r="1.8"/><circle cx="58" cy="71" r="1.8"/>
    <circle cx="34" cy="83" r="1.8"/><circle cx="46" cy="83" r="1.8"/><circle cx="58" cy="83" r="1.8"/>
    <circle cx="34" cy="95" r="1.8"/><circle cx="46" cy="95" r="1.8"/><circle cx="58" cy="95" r="1.8"/>
  </g>
  <g stroke="#2A211B" stroke-opacity=".78" stroke-width="1.8" stroke-linecap="round" stroke-linejoin="round">
    <rect x="37" y="51" width="86" height="64" rx="4"/>
    <path d="M37 68h86"/>
    <path d="M49 59h.2M59 59h.2"/>
    <path d="M52 85h56"/>
    <path d="M52 98h24"/>
    <path d="M86 98h22"/>
  </g>
  <path d="M69 59h.2" stroke="#D6A441" stroke-width="1.8" stroke-linecap="round"/>
</svg>
