<svg width="160" height="160" viewBox="0 0 160 160" fill="none" xmlns="http://www.w3.org/2000/svg" role="img" aria-labelledby="phone-title">
  <title id="phone-title">Phone illustration</title>
  <rect x="40" y="33" width="78" height="78" rx="4" fill="#E8B7A1" fill-opacity=".54"/>
  <circle cx="108" cy="101" r="27" fill="#8FA7A0" fill-opacity=".46"/>
  <g fill="#2A211B" fill-opacity=".22">
    <circle cx="34" cy="71" r="1.8"/><circle cx="46" cy="71" r="1.8"/><circle cx="58" cy="71" r="1.8"/>
    <circle cx="34" cy="83" r="1.8"/><circle cx="46" cy="83" r="1.8"/><circle cx="58" cy="83" r="1.8"/>
    <circle cx="34" cy="95" r="1.8"/><circle cx="46" cy="95" r="1.8"/><circle cx="58" cy="95" r="1.8"/>
  </g>
  <g stroke="#2A211B" stroke-opacity=".78" stroke-width="1.8" stroke-linecap="round" stroke-linejoin="round">
    <rect x="58" y="30" width="55" height="103" rx="7"/>
    <path d="M78 44h15"/>
    <path d="M75 66h22"/>
    <path d="M75 82h22"/>
    <path d="M75 98h14"/>
    <path d="M85.5 119h.2"/>
  </g>
  <circle cx="108" cy="35" r="4.5" fill="#D6A441" stroke="#2A211B" stroke-opacity=".5" stroke-width="1"/>
</svg>
