<svg width="160" height="160" viewBox="0 0 160 160" fill="none" xmlns="http://www.w3.org/2000/svg" role="img" aria-labelledby="shield-title">
  <title id="shield-title">Shield illustration</title>
  <rect x="40" y="33" width="78" height="78" rx="4" fill="#8FA7A0" fill-opacity=".76"/>
  <circle cx="108" cy="101" r="27" fill="#E8B7A1" fill-opacity=".48"/>
  <g fill="#2A211B" fill-opacity=".22">
    <circle cx="34" cy="71" r="1.8"/><circle cx="46" cy="71" r="1.8"/><circle cx="58" cy="71" r="1.8"/>
    <circle cx="34" cy="83" r="1.8"/><circle cx="46" cy="83" r="1.8"/><circle cx="58" cy="83" r="1.8"/>
    <circle cx="34" cy="95" r="1.8"/><circle cx="46" cy="95" r="1.8"/><circle cx="58" cy="95" r="1.8"/>
  </g>
  <g stroke="#2A211B" stroke-opacity=".78" stroke-width="1.8" stroke-linecap="round" stroke-linejoin="round">
    <path d="M80 36l43 15v31c0 26.5-17.3 43.7-43 51-25.7-7.3-43-24.5-43-51V51l43-15Z"/>
    <path d="M61 111h38"/>
  </g>
  <path d="M61 82l13 13 27-31" stroke="#D6A441" stroke-width="1.8" stroke-linecap="round" stroke-linejoin="round" fill="none"/>
</svg>
