<svg width="160" height="160" viewBox="0 0 160 160" fill="none" xmlns="http://www.w3.org/2000/svg" role="img" aria-labelledby="strategy-title">
  <title id="strategy-title">Strategy illustration</title>
  <rect x="40" y="33" width="78" height="78" rx="4" fill="#8FA7A0" fill-opacity=".76"/>
  <circle cx="108" cy="101" r="27" fill="#E8B7A1" fill-opacity=".48"/>
  <g fill="#2A211B" fill-opacity=".22">
    <circle cx="34" cy="71" r="1.8"/><circle cx="46" cy="71" r="1.8"/><circle cx="58" cy="71" r="1.8"/>
    <circle cx="34" cy="83" r="1.8"/><circle cx="46" cy="83" r="1.8"/><circle cx="58" cy="83" r="1.8"/>
    <circle cx="34" cy="95" r="1.8"/><circle cx="46" cy="95" r="1.8"/><circle cx="58" cy="95" r="1.8"/>
  </g>
  <g stroke="#2A211B" stroke-opacity=".78" stroke-width="1.8" stroke-linecap="round" stroke-linejoin="round">
    <path d="M80 118c25 0 45-18 45-40S105 38 80 38 35 56 35 78s20 40 45 40Z"/>
    <path d="M80 103c15.5 0 28-11.2 28-25S95.5 53 80 53 52 64.2 52 78s12.5 25 28 25Z"/>
    <path d="M91 67l22-22"/>
    <path d="M113 45h12v12"/>
  </g>
  <circle cx="80" cy="78" r="11" fill="#D6A441" stroke="#2A211B" stroke-opacity=".5" stroke-width="1"/>
</svg>
