<svg width="160" height="160" viewBox="0 0 160 160" fill="none" xmlns="http://www.w3.org/2000/svg" role="img" aria-labelledby="trust-title">
  <title id="trust-title">Trust illustration</title>
  <rect x="40" y="33" width="78" height="78" rx="4" fill="#8FA7A0" fill-opacity=".42"/>
  <circle cx="108" cy="101" r="27" fill="#B86B3E" fill-opacity=".22"/>
  <g fill="#2A211B" fill-opacity=".22">
    <circle cx="34" cy="71" r="1.8"/><circle cx="46" cy="71" r="1.8"/><circle cx="58" cy="71" r="1.8"/>
    <circle cx="34" cy="83" r="1.8"/><circle cx="46" cy="83" r="1.8"/><circle cx="58" cy="83" r="1.8"/>
    <circle cx="34" cy="95" r="1.8"/><circle cx="46" cy="95" r="1.8"/><circle cx="58" cy="95" r="1.8"/>
  </g>
  <g stroke="#2A211B" stroke-opacity=".78" stroke-width="1.8" stroke-linecap="round" stroke-linejoin="round" fill="none">
    <path d="M80 58c-8 0-16 2-19 6-2 2-3 4-3 8v18c0 16 8 28 22 34 14-6 22-18 22-34V72c0-4-1-6-3-8-3-4-11-6-19-6z"/>
    <path d="M64 72h32"/>
  </g>
  <path d="M70 91l8 8 15-19" stroke="#D6A441" stroke-width="1.8" stroke-linecap="round" stroke-linejoin="round" fill="none"/>
</svg>
