<svg xmlns="http://www.w3.org/2000/svg" xmlns:xlink="http://www.w3.org/1999/xlink" width="1448" zoomAndPan="magnify" viewBox="0 0 1086 225" height="300" preserveAspectRatio="xMidYMid meet" version="1.0"><path fill="#141314" d="M 34.394531 41.59375 L 36.207031 41.59375 L 36.207031 43.402344 L 37.902344 44.082031 L 39.824219 45.210938 L 41.636719 48.828125 L 43.175781 49.5625 C 46.011719 51.027344 48.105469 53.015625 50.460938 55.160156 L 51.847656 56.394531 C 53.007812 57.449219 54.113281 58.5625 55.210938 59.679688 L 55.210938 61.488281 L 56.90625 62.167969 L 58.832031 63.296875 L 60.640625 66.914062 C 62.390625 67.902344 62.390625 67.902344 64.261719 68.722656 C 65.84375 70.078125 65.84375 70.078125 66.976562 71.433594 L 66.976562 73.242188 L 68.617188 73.527344 C 70.59375 74.148438 70.59375 74.148438 72.179688 75.445312 L 73.308594 76.859375 L 73.308594 78.667969 L 74.925781 79.386719 C 77.035156 80.535156 78.382812 81.746094 80.042969 83.472656 L 81.714844 85.191406 L 83.265625 86.804688 C 85.921875 89.535156 88.660156 92.097656 91.523438 94.605469 C 97.164062 99.628906 102.441406 105.015625 107.742188 110.394531 C 111.539062 114.226562 115.402344 117.886719 119.496094 121.402344 C 122.707031 124.242188 125.679688 127.320312 128.683594 130.378906 C 133.378906 135.1875 133.378906 135.1875 138.457031 139.582031 L 140.28125 141.058594 L 140.28125 142.867188 L 141.921875 143.605469 C 143.898438 144.675781 145.179688 145.667969 146.613281 147.390625 L 146.613281 149.199219 L 148.152344 149.835938 C 150.765625 151.304688 152.511719 153.144531 154.589844 155.300781 C 157.304688 158.085938 160.015625 160.746094 163.015625 163.214844 L 165.621094 165.476562 L 165.621094 167.285156 L 167.089844 167.90625 C 169.984375 169.503906 172.214844 171.386719 174.667969 173.613281 L 174.667969 175.421875 C 169.957031 175.625 165.238281 175.773438 160.523438 175.867188 C 158.921875 175.910156 157.320312 175.964844 155.722656 176.035156 C 145.210938 176.488281 145.210938 176.488281 140.28125 175.421875 C 136.222656 173.292969 133.386719 170.65625 130.324219 167.285156 C 129.230469 166.230469 128.132812 165.183594 127.03125 164.140625 C 126.109375 163.195312 125.1875 162.246094 124.273438 161.292969 C 121.339844 158.261719 118.382812 155.339844 115.175781 152.597656 C 109.597656 147.78125 104.523438 142.449219 99.351562 137.207031 C 95.90625 133.730469 92.480469 130.285156 88.753906 127.109375 C 85.707031 124.5 82.859375 121.722656 80.039062 118.871094 C 77.765625 116.574219 75.496094 114.269531 73.234375 111.960938 C 71.882812 110.585938 70.53125 109.21875 69.179688 107.851562 L 66.773438 105.40625 C 64.9375 103.695312 62.992188 102.117188 60.933594 100.675781 L 59.222656 99.46875 C 58.792969 99.171875 58.367188 98.871094 57.925781 98.5625 L 57.933594 101.4375 C 57.949219 110.367188 57.964844 119.296875 57.972656 128.226562 C 57.976562 132.816406 57.984375 137.40625 57.992188 141.996094 C 58.003906 146.421875 58.007812 150.851562 58.011719 155.277344 C 58.011719 156.96875 58.015625 158.664062 58.019531 160.355469 C 58.027344 162.71875 58.027344 165.078125 58.027344 167.441406 L 58.039062 169.585938 C 58.027344 171.230469 57.992188 172.875 57.925781 174.515625 L 57.019531 175.421875 L 34.394531 175.421875 Z M 34.394531 41.59375 " fill-opacity="1" fill-rule="nonzero"/><path fill="#c66733" d="M 672.863281 64.976562 C 680.265625 68.371094 687.144531 72.324219 693.226562 77.765625 C 691.800781 81.117188 689.691406 83.460938 687.234375 86.128906 L 684.992188 88.574219 L 683.273438 90.421875 C 680.042969 89.878906 678.320312 88.574219 675.808594 86.523438 C 669.222656 81.785156 661.707031 80.308594 653.765625 79.261719 C 648.121094 79.015625 642.378906 80.308594 637.117188 82.285156 C 634.691406 83.839844 632.664062 85.527344 630.785156 87.710938 C 629.472656 90.328125 629.582031 92.671875 629.648438 95.566406 C 629.808594 97.851562 629.808594 97.851562 631.011719 100.597656 C 635.445312 105.027344 641.570312 106.796875 647.519531 108.515625 C 650.773438 109.34375 654.039062 110.125 657.3125 110.882812 C 670.382812 113.9375 670.382812 113.9375 676.035156 116.644531 L 679.144531 117.832031 C 683.007812 119.664062 686.476562 121.855469 689.609375 124.785156 L 690.511719 127.496094 L 692.324219 127.496094 L 694.078125 131.453125 L 695.0625 133.675781 C 695.632812 134.945312 696.226562 136.199219 696.847656 137.445312 C 697.351562 143.089844 697.410156 148.578125 695.433594 153.945312 C 692.367188 160.511719 688.371094 165.636719 682.425781 169.828125 C 673.164062 175.226562 663.410156 176.648438 652.84375 176.722656 C 639.957031 176.578125 628.265625 173.855469 617.039062 167.394531 C 613.125 164.976562 609.746094 162.242188 606.347656 159.144531 C 606.71875 156.851562 607.183594 155.613281 608.664062 153.789062 L 610.367188 152.136719 L 612.058594 150.457031 L 613.589844 149.199219 L 615.398438 149.199219 L 617.210938 145.582031 C 618.808594 145.824219 618.808594 145.824219 620.828125 146.484375 C 622 147.558594 623.132812 148.667969 624.222656 149.820312 C 629.277344 154.378906 634.839844 156.964844 641.351562 158.714844 C 649.75 160.4375 659.191406 160.277344 667.378906 157.675781 C 670.054688 156.46875 672.261719 155.183594 674.335938 153.097656 C 676.148438 149.898438 676.914062 147.570312 677.109375 143.929688 C 677.023438 141.730469 677.023438 141.730469 675.636719 139.027344 C 672.054688 135.1875 668.363281 132.753906 663.332031 131.132812 C 660.167969 130.324219 656.992188 129.5625 653.804688 128.851562 C 651.535156 128.3125 649.265625 127.769531 646.996094 127.222656 L 643.714844 126.429688 C 634.390625 124.105469 624.738281 121.425781 617.246094 115.164062 C 613.027344 110.929688 611.136719 106.3125 609.601562 100.585938 C 608.503906 94.601562 609.445312 89.667969 611.441406 83.980469 C 613.917969 78.351562 617.304688 74.386719 622.132812 70.613281 C 636.71875 60.621094 656.21875 59.253906 672.863281 64.976562 " fill-opacity="1" fill-rule="nonzero"/><path fill="#141314" d="M 247.113281 88.125 C 255.917969 92.71875 263.050781 98.96875 268.535156 107.238281 C 273.027344 114.898438 275.1875 122.640625 275.519531 131.511719 C 275.277344 139.945312 272.875 147.3125 268.503906 154.511719 C 263.726562 161.492188 258.121094 166.808594 250.6875 170.898438 C 240.882812 175.5625 230.769531 177.5625 219.917969 177.230469 C 209.820312 176.109375 201.425781 173.644531 192.769531 168.1875 C 185.722656 162.960938 180.734375 157.066406 176.988281 149.167969 C 173.773438 141.511719 172.441406 134.613281 173.09375 126.332031 C 174.375 116.378906 177.507812 108.839844 183.589844 100.859375 C 186.371094 97.5625 189.324219 94.816406 192.769531 92.230469 L 194.417969 90.96875 C 200.589844 86.695312 208.175781 84.492188 215.5625 83.414062 C 226.667969 82.6875 236.832031 83.53125 247.113281 88.125 M 204.328125 106.800781 C 200.160156 109.636719 197.738281 113.085938 195.484375 117.550781 C 192.878906 123.746094 192.242188 129.140625 192.992188 135.796875 C 193.949219 141.492188 196.542969 145.5625 200.007812 150.101562 L 201.65625 152.449219 C 203.964844 154.992188 205.871094 155.882812 209.058594 157.109375 L 211.886719 158.226562 C 218.179688 160.449219 224.125 160.53125 230.78125 160.050781 C 236.726562 158.910156 241.050781 156.480469 245.65625 152.589844 C 249.886719 148.496094 252.183594 144.746094 254.011719 139.222656 C 255.625 133.558594 255.5625 128.445312 254.308594 122.695312 C 252.617188 116.894531 249.445312 112.789062 245.257812 108.507812 C 242.4375 105.949219 239.609375 104.253906 236.039062 102.855469 C 224.332031 100.554688 214.976562 101.164062 204.328125 106.800781 M 490.511719 58.773438 L 510.421875 58.773438 L 510.421875 102.179688 L 517.660156 95.847656 C 523.910156 92.03125 530.058594 88.609375 537.496094 88.222656 C 539.085938 88.203125 540.675781 88.199219 542.265625 88.21875 L 544.792969 88.238281 C 552.492188 88.425781 559.214844 89.554688 565.976562 93.488281 C 570.410156 96.601562 574.175781 100.28125 576.625 105.171875 C 577.519531 107.171875 578.375 109.191406 579.199219 111.222656 L 580.105469 113.027344 C 580.183594 114.6875 580.203125 116.34375 580.191406 118.003906 L 580.183594 121.160156 L 580.160156 124.589844 L 580.144531 129.917969 C 580.132812 133.675781 580.113281 137.4375 580.09375 141.195312 C 580.078125 144.277344 580.066406 147.355469 580.058594 150.4375 C 580.050781 152.746094 580.039062 155.058594 580.023438 157.371094 C 580.011719 162.011719 580.050781 166.554688 580.617188 171.167969 L 581.007812 174.515625 L 580.105469 175.421875 C 578.691406 175.496094 577.273438 175.523438 575.859375 175.511719 L 573.269531 175.5 L 570.546875 175.476562 L 567.8125 175.464844 C 565.574219 175.453125 563.335938 175.441406 561.101562 175.421875 L 561.082031 173.445312 C 561.03125 167.273438 560.964844 161.101562 560.886719 154.929688 C 560.847656 151.753906 560.808594 148.582031 560.785156 145.410156 C 560.757812 141.757812 560.707031 138.101562 560.65625 134.449219 L 560.640625 131.023438 C 560.539062 125.003906 560.125 120.285156 557.480469 114.835938 C 554.359375 111.027344 550.992188 108.84375 546.621094 106.699219 C 539.414062 104.859375 532.738281 105.714844 525.660156 107.625 C 522.109375 108.84375 519.421875 110.390625 516.753906 113.027344 C 514.023438 116.496094 512.5625 119.667969 511.324219 123.878906 C 509.792969 134.535156 510.34375 145.53125 510.421875 156.261719 C 510.445312 159.699219 510.460938 163.132812 510.476562 166.566406 L 510.5 168.949219 C 510.507812 170.804688 510.46875 172.660156 510.421875 174.515625 L 509.515625 175.421875 C 508.179688 175.511719 506.839844 175.539062 505.5 175.542969 L 503.046875 175.546875 L 500.464844 175.535156 L 497.882812 175.546875 L 495.433594 175.542969 L 493.164062 175.539062 L 491.414062 175.421875 L 490.511719 174.515625 C 490.429688 173.015625 490.394531 171.515625 490.402344 170.015625 L 490.398438 167.058594 L 490.40625 163.789062 L 490.40625 160.367188 C 490.40625 157.261719 490.410156 154.160156 490.417969 151.054688 C 490.425781 147.8125 490.425781 144.570312 490.425781 141.328125 C 490.429688 135.1875 490.4375 129.042969 490.445312 122.902344 C 490.453125 115.910156 490.460938 108.921875 490.464844 101.929688 C 490.476562 87.542969 490.488281 73.160156 490.511719 58.773438 " fill-opacity="1" fill-rule="nonzero"/><path fill="#c66733" d="M 777.390625 95.847656 C 780.351562 97.398438 782.925781 99.207031 785.539062 101.273438 L 788.253906 103.082031 L 788.253906 104.890625 L 790.0625 104.890625 C 795.417969 111.417969 799.332031 118.265625 800.921875 126.59375 C 801.203125 129.367188 801.265625 132.113281 801.261719 134.902344 L 801.257812 137.167969 C 801.113281 144.433594 799.644531 150.945312 796.320312 157.449219 C 795.378906 158.976562 795.378906 158.976562 793.683594 160.953125 L 791.871094 160.953125 L 791.667969 162.535156 C 790.96875 164.570312 790.96875 164.570312 789.25 166.378906 C 782.597656 171.746094 775.914062 174.976562 767.4375 176.324219 C 759.648438 176.789062 752.027344 176.945312 744.8125 173.613281 C 740.65625 171.207031 736.882812 168.351562 733.046875 165.476562 L 733.0625 168.945312 C 733.078125 173.179688 733.089844 177.417969 733.097656 181.652344 C 733.101562 183.488281 733.109375 185.324219 733.117188 187.160156 C 733.128906 189.792969 733.132812 192.421875 733.136719 195.058594 L 733.148438 197.558594 C 733.148438 199.523438 733.105469 201.488281 733.046875 203.453125 L 732.144531 204.355469 C 730.9375 204.445312 729.730469 204.472656 728.523438 204.476562 L 726.316406 204.480469 L 723.996094 204.46875 L 721.679688 204.480469 L 719.472656 204.476562 L 717.4375 204.472656 L 715.851562 204.355469 L 714.949219 203.453125 C 714.867188 202.058594 714.828125 200.664062 714.832031 199.265625 L 714.824219 196.523438 L 714.832031 193.488281 L 714.824219 190.308594 C 714.824219 186.828125 714.824219 183.34375 714.828125 179.859375 L 714.824219 172.632812 C 714.824219 167.574219 714.824219 162.515625 714.832031 157.460938 C 714.835938 151.605469 714.835938 145.753906 714.828125 139.898438 C 714.824219 134.878906 714.824219 129.863281 714.824219 124.847656 C 714.828125 121.84375 714.828125 118.84375 714.824219 115.84375 C 714.824219 112.5 714.824219 109.160156 714.832031 105.8125 L 714.824219 102.78125 L 714.832031 100.035156 L 714.835938 97.636719 L 714.949219 95.847656 L 715.851562 94.945312 C 718.257812 94.855469 720.632812 94.820312 723.035156 94.832031 L 725.070312 94.820312 C 730.101562 94.828125 730.101562 94.828125 732.144531 95.847656 L 732.144531 105.796875 L 733.953125 105.796875 L 733.953125 103.988281 L 735.761719 103.988281 L 735.761719 102.179688 C 737.78125 100.679688 737.78125 100.679688 740.457031 99.011719 L 743.097656 97.347656 C 753.765625 91.25 765.996094 92.289062 777.390625 95.847656 M 743.015625 112.535156 C 739.460938 115.261719 736.824219 118.066406 734.863281 122.117188 C 732.796875 127.339844 731.4375 132.710938 732.144531 138.347656 C 733.367188 143.886719 734.707031 149.324219 738.363281 153.777344 C 741.195312 156.65625 744.3125 159.273438 748.1875 160.574219 C 753.953125 161.636719 760.632812 161.777344 766.328125 160.304688 C 770.582031 158.503906 774.191406 156.160156 777.390625 152.816406 C 780.871094 146.941406 782.957031 141.878906 783.046875 135.015625 C 782.992188 128.285156 781.726562 124.28125 778.636719 118.339844 C 775.730469 114.824219 772.300781 112.550781 768.34375 110.316406 C 760.523438 107.710938 750.082031 108.261719 743.015625 112.535156 M 972.871094 65.105469 C 974.085938 65.03125 975.304688 65.003906 976.523438 65.015625 L 978.738281 65.023438 L 981.070312 65.046875 L 983.414062 65.058594 C 985.328125 65.074219 987.246094 65.085938 989.160156 65.105469 C 990.402344 78.171875 990.167969 91.269531 990.121094 104.382812 C 990.117188 106.714844 990.113281 109.050781 990.109375 111.386719 C 990.097656 117.058594 990.085938 122.730469 990.066406 128.402344 C 994.5625 124.636719 998.773438 120.714844 1002.894531 116.542969 L 1004.679688 114.75 C 1006.539062 112.878906 1008.398438 111.003906 1010.257812 109.128906 C 1012.722656 106.644531 1015.1875 104.160156 1017.65625 101.679688 L 1019.367188 99.949219 C 1023.34375 95.949219 1023.34375 95.949219 1025.359375 94.945312 C 1027 94.867188 1028.644531 94.847656 1030.289062 94.855469 L 1033.238281 94.863281 L 1036.332031 94.886719 L 1039.445312 94.898438 C 1041.992188 94.910156 1044.535156 94.925781 1047.078125 94.945312 C 1046.226562 95.960938 1045.367188 96.976562 1044.507812 97.988281 L 1043.0625 99.703125 C 1041.269531 101.699219 1039.25 103.257812 1037.125 104.890625 C 1034.796875 107.171875 1032.515625 109.496094 1030.242188 111.832031 L 1027.90625 114.214844 L 1025.546875 116.636719 L 1023.550781 118.453125 L 1021.738281 118.453125 L 1021.0625 120.035156 C 1019.929688 122.070312 1019.929688 122.070312 1017.949219 123.765625 L 1016.308594 125.6875 C 1016.4375 128.582031 1016.4375 128.582031 1017.214844 131.113281 L 1019.023438 131.113281 C 1020.191406 132.402344 1020.191406 132.402344 1021.398438 134.109375 L 1022.625 135.792969 C 1023.550781 137.445312 1023.550781 137.445312 1023.550781 140.15625 L 1025.359375 140.15625 C 1026.796875 142.140625 1026.796875 142.140625 1028.414062 144.789062 C 1030.195312 147.675781 1031.964844 150.542969 1033.902344 153.324219 L 1035.316406 155.527344 L 1035.316406 157.335938 L 1037.125 157.335938 C 1038.355469 159.007812 1039.511719 160.730469 1040.632812 162.480469 C 1042.464844 165.332031 1044.261719 168.0625 1046.40625 170.691406 L 1047.984375 172.707031 L 1047.984375 174.515625 C 1041.394531 175.554688 1034.578125 176.347656 1028.074219 174.515625 C 1023.226562 171.171875 1020.558594 165.726562 1017.742188 160.695312 C 1015.195312 156.332031 1012.183594 152.285156 1009.238281 148.179688 C 1008.15625 146.636719 1007.074219 145.089844 1005.996094 143.539062 L 1004.617188 141.558594 L 1003.640625 140.15625 C 1000.8125 141.511719 998.640625 142.992188 996.285156 145.074219 L 994.414062 146.707031 C 992.601562 148.359375 992.601562 148.359375 990.96875 151.007812 C 989.972656 155.960938 989.984375 160.789062 990.066406 165.8125 C 990.105469 168.417969 990.109375 171.007812 990.066406 173.613281 L 989.160156 174.515625 C 987.957031 174.605469 986.746094 174.632812 985.539062 174.636719 L 983.335938 174.640625 L 981.015625 174.628906 L 978.695312 174.640625 L 976.488281 174.636719 L 974.453125 174.632812 L 972.871094 174.515625 L 971.964844 173.613281 C 971.882812 172.21875 971.84375 170.824219 971.851562 169.425781 L 971.84375 166.683594 L 971.847656 163.648438 L 971.84375 160.472656 C 971.839844 156.988281 971.839844 153.503906 971.84375 150.019531 L 971.84375 142.792969 C 971.839844 137.734375 971.84375 132.675781 971.847656 127.621094 C 971.851562 121.765625 971.851562 115.914062 971.84375 110.058594 C 971.839844 105.042969 971.839844 100.023438 971.84375 95.007812 C 971.84375 92.003906 971.84375 89.003906 971.84375 86.003906 C 971.839844 82.660156 971.84375 79.320312 971.847656 75.976562 L 971.84375 72.941406 L 971.851562 70.195312 L 971.851562 67.796875 L 971.964844 66.007812 Z M 873.152344 97.035156 C 876.449219 98.960938 879.058594 101.019531 881.464844 103.988281 L 881.464844 105.796875 L 884.179688 106.699219 C 885.207031 108.574219 885.207031 108.574219 886.105469 110.9375 L 887.015625 113.265625 C 888.417969 117.6875 888.820312 121.960938 888.824219 126.582031 L 888.832031 129.753906 L 888.828125 133.136719 L 888.828125 136.636719 C 888.828125 139.066406 888.828125 141.5 888.824219 143.933594 C 888.820312 147.058594 888.820312 150.183594 888.828125 153.304688 C 888.832031 156.285156 888.828125 159.265625 888.828125 162.242188 L 888.832031 165.652344 L 888.824219 168.78125 L 888.820312 171.550781 L 888.707031 173.613281 L 887.800781 174.515625 C 886.585938 174.59375 885.367188 174.613281 884.148438 174.605469 L 881.929688 174.597656 L 879.597656 174.574219 L 877.257812 174.5625 C 875.34375 174.550781 873.425781 174.535156 871.511719 174.515625 L 871.511719 165.476562 L 869.703125 165.476562 L 869.136719 167.058594 C 867.382812 169.921875 865.371094 171.039062 862.460938 172.707031 C 855.785156 175.769531 848.988281 176.8125 841.648438 176.324219 C 835.667969 175.707031 830.523438 174.480469 825.359375 171.335938 C 821.441406 168.441406 818.945312 165.015625 816.421875 160.898438 C 814.5 155.730469 814.675781 150.058594 815.402344 144.675781 C 816.976562 140.375 819.269531 137.175781 822.519531 133.972656 C 828.386719 129.164062 834.800781 127.652344 842.15625 126.421875 C 849.382812 125.3125 856.167969 125.671875 863.367188 126.59375 C 865.78125 126.886719 868.195312 127.1875 870.605469 127.496094 C 870.457031 120.886719 870.457031 120.886719 868.117188 114.835938 C 864.621094 111.734375 861.636719 110.171875 857.089844 109.074219 C 850.726562 108.054688 845.015625 109.289062 838.933594 111.222656 C 836.453125 112.347656 834.109375 113.546875 831.769531 114.9375 C 829.882812 115.742188 829.882812 115.742188 828.011719 115.722656 C 826.261719 114.835938 826.261719 114.835938 824.6875 112.667969 L 823.265625 109.976562 L 821.804688 107.300781 L 820.832031 104.890625 L 821.738281 102.179688 C 823.660156 101.003906 825.640625 99.929688 827.675781 98.957031 L 829.433594 98.105469 C 833.546875 96.15625 837.164062 94.773438 841.648438 94.039062 L 843.722656 93.679688 C 853.144531 92.398438 864.464844 92.917969 873.152344 97.035156 M 836.726562 141.851562 C 834.421875 143.757812 833.660156 144.679688 832.597656 147.390625 C 832.378906 149.523438 832.378906 149.523438 832.484375 151.683594 L 832.535156 153.875 L 832.597656 155.527344 L 834.40625 155.527344 L 835.054688 157.65625 L 836.214844 160.050781 C 839.5625 162.253906 843.4375 163.390625 847.386719 163.984375 C 852.449219 164.179688 856.964844 163.046875 861.554688 160.953125 C 864.902344 159.128906 867.304688 157.1875 869.644531 154.171875 C 871.140625 149.25 870.8125 144.355469 870.605469 139.253906 C 859.511719 137.792969 846.867188 136.324219 836.726562 141.851562 " fill-opacity="1" fill-rule="nonzero"/><path fill="#141314" d="M 419.015625 71.433594 L 438.925781 71.433594 L 438.925781 92.230469 L 466.980469 92.230469 L 466.980469 106.699219 L 439.832031 107.605469 C 439.769531 113.542969 439.714844 119.476562 439.683594 125.414062 C 439.667969 127.429688 439.648438 129.449219 439.625 131.46875 C 439.59375 134.375 439.578125 137.28125 439.566406 140.1875 C 439.550781 141.085938 439.539062 141.980469 439.523438 142.90625 C 439.523438 148.125 439.984375 151.84375 442.546875 156.433594 C 444.789062 158.382812 444.789062 158.382812 447.976562 159.144531 C 454.054688 159.644531 460.046875 159.03125 466.074219 158.242188 C 466.382812 159.804688 466.683594 161.367188 466.980469 162.933594 L 467.492188 165.570312 C 467.859375 168 467.957031 170.257812 467.886719 172.707031 C 463.007812 175.09375 458.816406 176.035156 453.40625 176.324219 L 451.425781 176.4375 C 445.28125 176.613281 438.929688 176.113281 433.253906 173.613281 C 428.890625 171.082031 425.433594 167.867188 422.636719 163.667969 C 418.582031 155.929688 418.878906 147.113281 418.925781 138.597656 L 418.933594 135.894531 C 418.9375 133.078125 418.949219 130.257812 418.960938 127.441406 C 418.964844 125.519531 418.96875 123.59375 418.972656 121.671875 C 418.980469 116.980469 418.996094 112.292969 419.015625 107.605469 L 402.726562 106.699219 L 402.726562 92.230469 L 419.015625 92.230469 Z M 373.765625 91.328125 C 376.378906 92.414062 378.898438 93.628906 381.402344 94.945312 L 383.136719 95.855469 C 385.523438 97.195312 387.152344 98.257812 388.617188 100.597656 L 389.152344 102.179688 L 387.339844 102.179688 C 387.105469 102.699219 386.871094 103.214844 386.625 103.75 C 385.449219 105.953125 384.105469 107.6875 382.476562 109.582031 L 380.871094 111.484375 C 379.195312 113.027344 379.195312 113.027344 377.445312 113.851562 C 375.578125 113.933594 375.578125 113.933594 373.53125 112.929688 L 371.335938 111.445312 C 364.953125 107.402344 358.539062 105.304688 350.988281 104.746094 C 343.8125 104.484375 336.921875 105.65625 330.46875 108.898438 C 328.257812 110.195312 326.101562 111.570312 323.992188 113.027344 L 322.214844 114.164062 C 319.207031 116.742188 318.191406 119.933594 316.769531 123.558594 C 315.292969 128.421875 315.207031 133.054688 315.238281 138.105469 L 315.203125 141.273438 C 315.171875 144.574219 315.167969 147.875 315.167969 151.175781 C 315.148438 154.511719 315.125 157.847656 315.09375 161.1875 C 315.078125 163.253906 315.070312 165.320312 315.066406 167.386719 L 315.054688 170.1875 L 315.054688 172.660156 L 314.941406 174.515625 L 314.039062 175.421875 C 312.699219 175.511719 311.359375 175.539062 310.023438 175.542969 L 307.570312 175.546875 L 304.988281 175.535156 L 302.40625 175.546875 L 299.953125 175.542969 L 297.6875 175.539062 L 295.9375 175.421875 L 295.03125 174.515625 C 294.941406 171.960938 294.910156 169.429688 294.914062 166.875 L 294.910156 164.449219 C 294.90625 161.785156 294.910156 159.121094 294.914062 156.460938 C 294.914062 154.621094 294.910156 152.777344 294.910156 150.9375 C 294.910156 147.070312 294.910156 143.207031 294.914062 139.34375 C 294.917969 134.375 294.917969 129.410156 294.910156 124.445312 C 294.910156 120.640625 294.910156 116.835938 294.910156 113.035156 C 294.910156 111.203125 294.910156 109.371094 294.910156 107.539062 C 294.90625 104.984375 294.910156 102.429688 294.914062 99.875 L 294.910156 97.554688 C 294.917969 95.78125 294.96875 94.007812 295.03125 92.230469 L 295.9375 91.328125 C 297.273438 91.242188 298.613281 91.203125 299.953125 91.207031 L 302.40625 91.203125 L 304.988281 91.214844 L 307.570312 91.203125 L 310.019531 91.207031 L 312.289062 91.210938 L 314.039062 91.328125 L 314.941406 92.230469 C 315.007812 94.058594 315.019531 95.886719 315 97.714844 L 314.972656 100.742188 L 314.941406 103.082031 L 316.753906 103.082031 L 317.453125 101.445312 C 319.652344 97.523438 323.734375 95.371094 327.441406 92.984375 C 341.328125 85.179688 359.15625 86.195312 373.765625 91.328125 " fill-opacity="1" fill-rule="nonzero"/><path fill="#c66733" d="M 954.769531 94.039062 L 956.582031 95.847656 C 956.734375 98.105469 956.792969 100.367188 956.75 102.628906 L 956.75 104.519531 C 956.707031 109.160156 956.707031 109.160156 955.675781 111.222656 L 953.160156 111.09375 C 945.746094 110.757812 945.746094 110.757812 938.761719 112.859375 C 935.894531 114.597656 935.894531 114.597656 934.332031 116.316406 L 933.050781 117.550781 L 931.242188 117.550781 L 930.449219 120.035156 C 929.429688 122.976562 929.429688 122.976562 928.46875 124.726562 C 926.011719 130.125 926.609375 136.613281 926.660156 142.410156 L 926.667969 145.113281 C 926.679688 147.945312 926.695312 150.773438 926.714844 153.605469 C 926.738281 157.351562 926.757812 161.097656 926.773438 164.847656 L 926.796875 167.46875 L 926.804688 169.875 L 926.820312 172 L 926.714844 173.613281 L 925.8125 174.515625 C 924.527344 174.589844 923.246094 174.621094 921.960938 174.605469 L 919.617188 174.597656 L 917.15625 174.574219 L 914.683594 174.5625 C 912.660156 174.550781 910.636719 174.535156 908.617188 174.515625 C 908.59375 164.277344 908.578125 154.035156 908.570312 143.792969 C 908.566406 139.039062 908.558594 134.28125 908.546875 129.527344 C 908.539062 124.945312 908.53125 120.359375 908.53125 115.773438 C 908.527344 114.019531 908.523438 112.265625 908.519531 110.515625 C 908.515625 108.066406 908.511719 105.621094 908.511719 103.171875 L 908.503906 100.953125 C 908.507812 99.25 908.554688 97.550781 908.617188 95.847656 L 909.519531 94.945312 C 912.09375 94.855469 914.640625 94.820312 917.214844 94.832031 L 919.402344 94.820312 C 921.238281 94.824219 923.070312 94.878906 924.90625 94.945312 L 925.8125 95.847656 C 925.875 97.675781 925.886719 99.503906 925.867188 101.332031 L 925.84375 104.359375 L 925.8125 106.699219 L 927.734375 104.722656 C 935.480469 97.089844 943.4375 92.351562 954.769531 94.039062 " fill-opacity="1" fill-rule="nonzero"/><path fill="#c55d23" d="M 135.753906 28.933594 L 137.566406 29.839844 C 138.101562 32.347656 138.101562 32.347656 138.53125 35.671875 L 138.769531 37.453125 C 138.933594 38.703125 139.09375 39.949219 139.246094 41.199219 C 139.484375 43.097656 139.734375 44.996094 139.984375 46.890625 C 140.660156 52.078125 141.289062 57.148438 141.183594 62.390625 C 144.453125 64.308594 147.71875 64.871094 151.421875 65.558594 C 155.953125 66.398438 160.308594 67.402344 164.714844 68.722656 L 163.808594 70.53125 C 161.707031 70.894531 159.59375 71.183594 157.472656 71.433594 C 154.921875 71.871094 152.382812 72.359375 149.839844 72.847656 L 147.832031 73.226562 C 146.21875 73.53125 144.605469 73.839844 142.996094 74.148438 C 141.6875 78.96875 140.828125 83.601562 140.445312 88.589844 L 140.277344 90.582031 C 140.105469 92.65625 139.933594 94.734375 139.769531 96.808594 C 139.601562 98.890625 139.429688 100.96875 139.253906 103.046875 C 139.144531 104.332031 139.042969 105.621094 138.9375 106.90625 C 138.621094 110.785156 138.148438 114.609375 137.566406 118.453125 L 135.753906 117.550781 C 135.425781 115.328125 135.191406 113.097656 135.046875 110.855469 L 134.886719 108.796875 C 134.714844 106.609375 134.554688 104.421875 134.398438 102.234375 C 134.128906 87.546875 134.128906 87.546875 129.417969 74.148438 C 121.695312 71.070312 113.191406 70.855469 104.984375 70.53125 L 104.984375 68.722656 L 106.808594 68.417969 C 109.558594 67.957031 112.304688 67.492188 115.054688 67.027344 L 117.921875 66.550781 C 122.5 65.769531 126.875 64.96875 131.230469 63.296875 C 133.472656 51.890625 134.804688 40.519531 135.753906 28.933594 M 614.496094 110.316406 C 616.339844 111.46875 618.148438 112.675781 619.925781 113.933594 L 619.925781 115.742188 L 622.128906 116.53125 L 624.449219 117.550781 L 625.355469 119.359375 C 622.6875 118.722656 620.507812 118.019531 618.355469 116.285156 C 617 114.964844 615.742188 113.546875 614.496094 112.125 Z M 614.496094 110.316406 " fill-opacity="1" fill-rule="nonzero"/><path fill="#c55e24" d="M 676.035156 84.996094 C 678.722656 86.015625 680.859375 87.007812 683.273438 88.613281 L 683.273438 90.421875 C 681.015625 90.019531 679.566406 89.464844 677.617188 88.21875 L 676.035156 86.804688 Z M 676.035156 84.996094 " fill-opacity="1" fill-rule="nonzero"/><path fill="#c55d23" d="M 725.808594 95.847656 L 732.144531 95.847656 L 732.144531 98.5625 L 725.808594 97.65625 Z M 725.808594 95.847656 " fill-opacity="1" fill-rule="nonzero"/></svg>