<svg xmlns="http://www.w3.org/2000/svg" xmlns:xlink="http://www.w3.org/1999/xlink" width="1448" zoomAndPan="magnify" viewBox="0 0 1086 299.999988" height="400" preserveAspectRatio="xMidYMid meet" version="1.0"><defs><clipPath id="2ce1b2a858"><path d="M 194.96875 73.316406 L 200.121094 73.316406 L 200.121094 79.167969 L 194.96875 79.167969 Z M 194.96875 73.316406 " clip-rule="nonzero"/></clipPath><clipPath id="5929a3c532"><path d="M 196.199219 73.351562 C 200.101562 78.601562 199.199219 79.125 198.976562 79.050781 C 198.824219 78.976562 198.675781 78.148438 198.824219 78 C 199.050781 77.773438 200.023438 77.925781 200.101562 78.074219 C 200.175781 78.300781 199.5 79.125 199.050781 79.125 C 198.375 79.125 197.023438 76.949219 196.273438 75.976562 C 195.75 75.226562 194.851562 74.398438 195 73.949219 C 195.074219 73.648438 196.199219 73.351562 196.199219 73.351562 " clip-rule="nonzero"/></clipPath><clipPath id="37ba497ae5"><path d="M 0.96875 0.316406 L 6.121094 0.316406 L 6.121094 6.167969 L 0.96875 6.167969 Z M 0.96875 0.316406 " clip-rule="nonzero"/></clipPath><clipPath id="85ec86b15f"><path d="M 2.199219 0.351562 C 6.101562 5.601562 5.199219 6.125 4.976562 6.050781 C 4.824219 5.976562 4.675781 5.148438 4.824219 5 C 5.050781 4.773438 6.023438 4.925781 6.101562 5.074219 C 6.175781 5.300781 5.5 6.125 5.050781 6.125 C 4.375 6.125 3.023438 3.949219 2.273438 2.976562 C 1.75 2.226562 0.851562 1.398438 1 0.949219 C 1.074219 0.648438 2.199219 0.351562 2.199219 0.351562 " clip-rule="nonzero"/></clipPath><clipPath id="e365535538"><rect x="0" width="7" y="0" height="7"/></clipPath><clipPath id="88a3637462"><path d="M 198.03125 73.726562 L 199.507812 73.726562 L 199.507812 74.949219 L 198.03125 74.949219 Z M 198.03125 73.726562 " clip-rule="nonzero"/></clipPath><clipPath id="988f5f721f"><path d="M 199.5 74.175781 C 198.824219 75.148438 198.226562 75 198.074219 74.773438 C 198 74.550781 198.074219 73.949219 198.300781 73.800781 C 198.449219 73.648438 199.273438 73.875 199.273438 73.875 " clip-rule="nonzero"/></clipPath><clipPath id="2df9c5cd2f"><path d="M 0.03125 0.726562 L 1.507812 0.726562 L 1.507812 1.949219 L 0.03125 1.949219 Z M 0.03125 0.726562 " clip-rule="nonzero"/></clipPath><clipPath id="516297ad39"><path d="M 1.5 1.175781 C 0.824219 2.148438 0.226562 2 0.0742188 1.773438 C 0 1.550781 0.0742188 0.949219 0.300781 0.800781 C 0.449219 0.648438 1.273438 0.875 1.273438 0.875 " clip-rule="nonzero"/></clipPath><clipPath id="978739da6c"><rect x="0" width="2" y="0" height="2"/></clipPath><clipPath id="a4cd09b169"><path d="M 198.628906 74.328125 L 200.109375 74.328125 L 200.109375 75.550781 L 198.628906 75.550781 Z M 198.628906 74.328125 " clip-rule="nonzero"/></clipPath><clipPath id="9b264efe59"><path d="M 200.101562 74.773438 C 199.425781 75.75 198.824219 75.601562 198.675781 75.375 C 198.601562 75.148438 198.675781 74.550781 198.898438 74.398438 C 199.050781 74.25 199.875 74.476562 199.875 74.476562 " clip-rule="nonzero"/></clipPath><clipPath id="f33e04b50f"><path d="M 0.628906 0.328125 L 2.109375 0.328125 L 2.109375 1.550781 L 0.628906 1.550781 Z M 0.628906 0.328125 " clip-rule="nonzero"/></clipPath><clipPath id="304ee221dc"><path d="M 2.101562 0.773438 C 1.425781 1.75 0.824219 1.601562 0.675781 1.375 C 0.601562 1.148438 0.675781 0.550781 0.898438 0.398438 C 1.050781 0.25 1.875 0.476562 1.875 0.476562 " clip-rule="nonzero"/></clipPath><clipPath id="b8626859b7"><rect x="0" width="3" y="0" height="2"/></clipPath></defs><path fill="#b6673b" d="M 69.683594 57.679688 L 114.933594 57.679688 C 121.441406 68.992188 121.441406 68.992188 123.460938 72.515625 C 126.265625 77.375 129.089844 82.207031 132.09375 86.945312 C 135.421875 92.257812 138.632812 97.753906 140.273438 103.832031 L 142.085938 103.832031 C 149.9375 117.742188 149.9375 117.742188 152.832031 123.121094 C 154.5625 126.316406 156.355469 129.476562 158.207031 132.605469 L 159.585938 134.953125 C 160.5 136.511719 161.425781 138.066406 162.351562 139.617188 L 163.628906 141.785156 L 164.785156 143.734375 C 165.613281 145.464844 165.613281 145.464844 165.613281 148.179688 L 167.425781 148.179688 L 168.722656 150.472656 C 172 156.25 175.320312 161.996094 178.738281 167.691406 C 180.769531 171.089844 182.835938 174.472656 184.933594 177.832031 L 185.957031 179.46875 C 186.886719 180.953125 187.816406 182.433594 188.753906 183.914062 C 190.050781 186.1875 190.050781 186.1875 190.050781 188 L 191.859375 188 L 192.5625 186.097656 C 193.808594 183.148438 195.296875 180.457031 196.886719 177.679688 L 197.828125 176.03125 C 198.480469 174.890625 199.136719 173.746094 199.792969 172.605469 C 200.789062 170.871094 201.78125 169.132812 202.773438 167.398438 C 207.789062 158.636719 207.789062 158.636719 210.21875 155.238281 L 211.769531 152.703125 C 211.21875 149.691406 211.21875 149.691406 209.960938 147.273438 L 207.246094 148.179688 L 206.113281 149.59375 C 204.53125 150.894531 204.53125 150.894531 201.53125 151.570312 L 198.195312 150.894531 C 196.917969 149.453125 196.917969 149.453125 195.691406 147.507812 L 194.277344 145.265625 C 191.460938 140.578125 188.734375 135.847656 186.035156 131.097656 C 182.773438 125.363281 179.515625 119.660156 175.933594 114.121094 C 173.347656 110.113281 171.035156 106.015625 168.785156 101.8125 C 166.4375 97.488281 163.921875 93.257812 161.429688 89.015625 C 157.101562 81.621094 152.792969 74.21875 148.53125 66.785156 L 147.113281 64.316406 L 145.824219 62.066406 L 144.691406 60.085938 C 143.894531 58.582031 143.894531 58.582031 143.894531 57.679688 C 150.207031 57.378906 156.515625 57.171875 162.832031 57.03125 C 164.976562 56.972656 167.121094 56.890625 169.265625 56.789062 C 183.582031 56.128906 183.582031 56.128906 189.144531 57.679688 C 191.457031 59.242188 192.773438 60.9375 194.09375 63.378906 C 195.4375 66.542969 195.4375 66.542969 196.386719 69.441406 L 197.433594 71.460938 C 198.195312 73.0625 198.195312 73.0625 198.195312 75.777344 L 200.003906 75.777344 C 201.0625 77.667969 202.113281 79.5625 203.160156 81.457031 C 204.117188 83.179688 205.078125 84.898438 206.039062 86.617188 L 207.527344 89.296875 L 208.929688 91.808594 C 209.960938 93.878906 209.960938 93.878906 209.960938 95.6875 L 211.769531 95.6875 L 212.574219 97.230469 C 216.210938 104.042969 220.160156 110.648438 224.15625 117.253906 C 225.050781 118.734375 225.941406 120.214844 226.828125 121.703125 C 227.605469 122.996094 228.40625 124.277344 229.230469 125.542969 C 230.257812 127.179688 230.257812 127.179688 231.679688 130.078125 C 231.652344 133.03125 230.785156 134.585938 229.382812 137.1875 L 227.496094 140.203125 C 222.832031 147.753906 218.425781 155.445312 214.027344 163.152344 C 210.867188 168.664062 207.605469 174.074219 204.140625 179.398438 C 202.152344 182.570312 200.402344 185.855469 198.628906 189.148438 C 197.242188 191.710938 195.8125 194.246094 194.347656 196.765625 L 193.035156 199.039062 L 191.859375 200.667969 L 190.050781 200.667969 L 189.917969 202.832031 C 188.828125 207.429688 186.488281 210.941406 184 214.921875 L 182.578125 217.234375 C 181.632812 218.773438 180.683594 220.3125 179.726562 221.84375 C 178.730469 223.46875 177.761719 225.109375 176.8125 226.761719 C 176.339844 227.582031 175.867188 228.402344 175.382812 229.246094 L 174.105469 231.507812 L 172.855469 233.25 L 170.140625 234.152344 L 169.285156 232.652344 C 162.175781 220.15625 162.175781 220.15625 154.925781 207.738281 C 151.125 201.316406 147.390625 194.859375 143.667969 188.394531 C 139.242188 180.707031 134.792969 173.03125 130.320312 165.375 C 123.644531 153.933594 117.007812 142.46875 110.410156 130.984375 L 108.960938 128.464844 C 103.109375 118.277344 97.339844 108.046875 91.609375 97.792969 C 88.121094 91.550781 84.601562 85.324219 81.054688 79.113281 L 79.707031 76.757812 C 76.753906 71.597656 73.75 66.46875 70.6875 61.371094 C 69.683594 59.488281 69.683594 59.488281 69.683594 57.679688 " fill-opacity="1" fill-rule="nonzero"/><path fill="#120b08" d="M 799.113281 60.394531 C 801.828125 60.289062 804.523438 60.246094 807.238281 60.242188 L 809.753906 60.230469 C 811.523438 60.226562 813.292969 60.226562 815.0625 60.226562 C 817.726562 60.222656 820.386719 60.207031 823.046875 60.191406 C 837.359375 60.144531 850.710938 60.363281 863.539062 67.40625 C 867.941406 70.929688 871.894531 74.898438 874.171875 80.132812 C 875.597656 84.679688 875.710938 89.171875 875.136719 93.878906 C 873.949219 98.71875 872.058594 102.6875 868.6875 106.378906 C 862.574219 111.917969 854.929688 114.449219 847.078125 116.503906 L 848.570312 117.59375 L 850.53125 119.050781 L 852.472656 120.480469 C 854.140625 121.792969 855.644531 123.046875 857.035156 124.648438 L 857.035156 126.457031 L 858.730469 127.082031 L 860.65625 128.269531 C 861.785156 130.644531 861.785156 130.644531 862.464844 132.792969 L 864.273438 132.792969 C 866.320312 134.984375 868.035156 137.457031 869.816406 139.863281 L 871.363281 141.886719 L 872.824219 143.839844 L 874.167969 145.636719 L 875.136719 147.273438 L 875.136719 149.988281 L 876.777344 150.667969 C 879.039062 151.960938 880.09375 153.21875 881.46875 155.417969 L 881.46875 157.226562 L 883.507812 157.964844 C 885.886719 158.992188 887.570312 160.125 889.613281 161.695312 C 894.617188 165.15625 899.992188 166.140625 905.90625 167.183594 L 905.90625 168.992188 C 880.101562 169.894531 880.101562 169.894531 872.039062 165.984375 C 867.757812 163.203125 864.175781 160.003906 860.65625 156.324219 C 859.785156 155.464844 859.785156 155.464844 858.902344 154.589844 C 853.976562 149.4375 850.199219 143.507812 846.25 137.605469 C 841.304688 130.300781 835.8125 122.613281 829.070312 116.84375 L 828.074219 115.597656 C 828.359375 113.617188 828.359375 113.617188 828.980469 111.976562 L 831.234375 111.90625 C 837.882812 111.570312 844.050781 111.066406 849.796875 107.453125 C 852.933594 104.449219 854.785156 101.253906 856.46875 97.273438 C 857.554688 90.761719 857.855469 84.527344 855.675781 78.210938 C 853.902344 74.339844 851.585938 71.691406 848.425781 68.878906 C 842 65.328125 834.273438 65.476562 827.113281 65.257812 L 824.214844 65.152344 C 821.882812 65.066406 819.550781 64.988281 817.214844 64.917969 L 817.21875 66.5 C 817.238281 79.171875 817.253906 91.84375 817.261719 104.519531 C 817.265625 110.648438 817.273438 116.777344 817.28125 122.902344 C 817.292969 128.8125 817.296875 134.722656 817.300781 140.632812 C 817.304688 142.890625 817.304688 145.152344 817.308594 147.410156 C 817.316406 150.5625 817.320312 153.71875 817.316406 156.871094 L 817.328125 159.734375 L 817.324219 162.320312 L 817.328125 164.585938 L 817.214844 166.277344 L 816.308594 167.183594 C 815.039062 167.273438 813.765625 167.300781 812.492188 167.304688 L 810.164062 167.308594 L 807.710938 167.296875 L 805.261719 167.308594 L 802.933594 167.304688 L 800.78125 167.300781 L 799.113281 167.183594 L 798.210938 166.277344 C 798.128906 164.917969 798.089844 163.554688 798.09375 162.191406 L 798.085938 159.511719 L 798.09375 156.554688 L 798.085938 153.453125 C 798.085938 150.054688 798.085938 146.65625 798.089844 143.257812 L 798.085938 136.207031 C 798.085938 131.273438 798.085938 126.339844 798.09375 121.40625 C 798.097656 115.695312 798.097656 109.984375 798.089844 104.273438 C 798.085938 98.789062 798.085938 93.304688 798.089844 87.824219 C 798.089844 85.484375 798.089844 83.148438 798.085938 80.808594 C 798.085938 77.546875 798.085938 74.285156 798.09375 71.023438 L 798.085938 68.0625 L 798.09375 65.386719 L 798.097656 63.046875 L 798.210938 61.296875 Z M 739.046875 64.414062 C 746.28125 67.773438 751.941406 71.878906 757.484375 77.589844 L 759.023438 79.070312 C 764.933594 85.226562 768.757812 94.066406 771.003906 102.191406 C 773.113281 112.132812 772.050781 122.171875 769.25 131.886719 C 766.792969 138.117188 763.535156 143.898438 759.296875 149.082031 L 757.484375 149.082031 L 756.75 150.835938 L 755.675781 152.703125 L 752.960938 153.609375 L 752.960938 155.417969 C 745.761719 161.480469 736.953125 165.226562 727.789062 167.015625 C 715.578125 169.132812 704.070312 168.441406 692.324219 164.46875 C 683.816406 160.96875 676.800781 155.871094 670.605469 149.082031 C 668.195312 145.902344 666.167969 142.636719 664.269531 139.128906 L 663.175781 137.167969 C 659.128906 129.089844 657.566406 119.8125 658.046875 110.847656 C 659.09375 101.050781 661.8125 92.355469 666.984375 83.921875 C 673.511719 75.316406 681.46875 68.875 691.226562 64.277344 C 706.136719 58.296875 724.167969 58.496094 739.046875 64.414062 M 695.664062 69.386719 C 689.324219 74.25 685.375 80.023438 682.191406 87.308594 C 681.257812 89.769531 680.414062 92.261719 679.65625 94.78125 L 679.035156 96.789062 C 675.722656 109.871094 677.410156 124.5 680.925781 137.34375 C 683.242188 145.023438 687.703125 151.464844 693.230469 157.226562 C 695.515625 159.082031 697.828125 160.464844 700.46875 161.753906 L 703.695312 163.394531 C 709.34375 165.328125 715.417969 165.011719 721.285156 164.46875 C 727.117188 163.179688 732.207031 160.792969 736.820312 156.984375 C 743.589844 150.601562 747 143.390625 749.726562 134.625 C 753.742188 120.398438 752.738281 105.378906 749.339844 91.164062 C 748.414062 88.324219 747.210938 85.609375 745.71875 83.019531 L 744.707031 81.148438 C 741.460938 75.542969 737.292969 70.773438 731.75 67.351562 C 724.832031 64.074219 718.671875 63.617188 711.058594 63.722656 C 705.128906 64.238281 700.730469 66.421875 695.664062 69.386719 M 464.265625 60.394531 C 466.347656 60.308594 468.429688 60.289062 470.515625 60.289062 L 472.496094 60.289062 C 474.664062 60.289062 476.832031 60.296875 479.003906 60.304688 L 483.503906 60.308594 C 487.460938 60.3125 491.417969 60.320312 495.371094 60.332031 C 499.40625 60.339844 503.441406 60.34375 507.472656 60.347656 C 515.394531 60.359375 523.3125 60.375 531.234375 60.394531 L 532.140625 64.917969 L 482.363281 64.917969 L 482.363281 162.65625 L 540.285156 162.65625 L 539.378906 167.183594 L 463.359375 167.183594 C 463.324219 140.757812 463.324219 140.757812 463.316406 127.75 C 463.308594 120.703125 463.300781 113.652344 463.292969 106.605469 C 463.28125 100.433594 463.277344 94.261719 463.273438 88.085938 C 463.273438 85.726562 463.269531 83.363281 463.265625 81.003906 C 463.257812 77.710938 463.257812 74.414062 463.257812 71.121094 L 463.246094 68.128906 L 463.25 65.425781 L 463.25 63.0625 L 463.359375 61.296875 Z M 346.164062 60.109375 L 348.242188 60.03125 C 350.261719 60.007812 350.261719 60.007812 353.855469 60.394531 C 356.492188 62.210938 357.367188 63.789062 358.761719 66.660156 L 359.964844 69.726562 C 361.867188 74.414062 364.035156 78.976562 366.46875 83.414062 C 369.015625 88.089844 371.4375 92.796875 373.707031 97.609375 L 374.515625 99.300781 C 375.910156 102.296875 376.894531 105.085938 377.386719 108.359375 L 379.195312 108.359375 L 380.390625 110.945312 C 384.144531 119.046875 388.011719 127.074219 392.101562 135.011719 C 394.578125 139.851562 394.578125 139.851562 394.578125 141.84375 L 397.296875 141.84375 L 398 139.085938 C 399.027344 135.492188 400.601562 132.25 402.328125 128.945312 C 405.128906 123.472656 407.824219 117.949219 410.417969 112.375 C 412.824219 107.234375 415.324219 102.1875 418.054688 97.214844 C 421.5625 90.8125 424.5625 84.199219 427.53125 77.53125 C 428.605469 75.132812 429.6875 72.738281 430.78125 70.347656 L 431.953125 67.765625 L 433.128906 65.28125 L 434.175781 63.039062 L 435.304688 61.296875 C 438.304688 60.28125 438.304688 60.28125 440.734375 60.394531 C 440.210938 63.480469 439.445312 66.035156 438.058594 68.839844 L 436.945312 71.109375 L 435.738281 73.535156 L 434.480469 76.089844 C 433.136719 78.8125 431.792969 81.539062 430.441406 84.261719 C 429.0625 87.058594 427.6875 89.855469 426.3125 92.652344 L 423.605469 98.144531 C 420.40625 104.640625 417.253906 111.152344 414.152344 117.691406 C 411.273438 123.75 408.324219 129.777344 405.304688 135.765625 C 402.804688 140.730469 400.4375 145.753906 398.085938 150.792969 C 395.507812 156.308594 392.816406 161.757812 390.054688 167.183594 C 388.003906 167.15625 388.003906 167.15625 385.53125 166.277344 C 384.164062 163.992188 383.144531 161.929688 382.136719 159.492188 C 381.515625 158.085938 380.894531 156.679688 380.269531 155.277344 L 379.296875 153.082031 C 377.386719 148.925781 375.179688 144.929688 372.992188 140.914062 C 371.40625 137.980469 369.917969 135.046875 368.601562 131.980469 C 366.324219 126.816406 363.789062 121.789062 361.253906 116.75 C 360.371094 115 359.492188 113.246094 358.613281 111.492188 C 356.429688 107.144531 354.246094 102.792969 352.058594 98.445312 C 350.207031 94.757812 348.359375 91.070312 346.511719 87.386719 C 345.652344 85.675781 344.792969 83.96875 343.933594 82.261719 C 334.851562 64.144531 334.851562 64.144531 334.851562 61.296875 C 338.609375 60.257812 342.285156 60.160156 346.164062 60.109375 M 962.015625 60.394531 C 963.699219 61.035156 963.699219 61.035156 965.636719 62.203125 C 966.722656 64.050781 966.722656 64.050781 967.671875 66.390625 C 969.53125 70.734375 971.53125 75.015625 973.667969 79.230469 L 974.601562 81.085938 C 975.832031 83.53125 977.066406 85.976562 978.300781 88.421875 L 980.03125 91.855469 C 980.800781 93.378906 981.570312 94.902344 982.339844 96.425781 C 983.808594 99.460938 985.132812 102.539062 986.449219 105.644531 C 987.652344 108.253906 988.863281 110.863281 990.082031 113.46875 C 990.976562 115.597656 990.976562 115.597656 990.976562 117.40625 L 992.785156 117.40625 L 993.519531 119.308594 C 995.996094 125.492188 998.835938 131.339844 1002.046875 137.167969 C 1006.359375 145.027344 1006.359375 145.027344 1006.359375 149.082031 L 1008.171875 149.082031 L 1009.0625 151.070312 L 1010.261719 153.722656 L 1011.503906 156.472656 C 1012.410156 158.410156 1013.375 160.320312 1014.390625 162.207031 L 1015.410156 164.46875 L 1014.503906 167.183594 L 996.40625 167.183594 C 990.335938 155.914062 984.644531 144.503906 979.082031 132.976562 C 975.292969 125.121094 971.476562 117.285156 967.558594 109.488281 L 966.472656 107.332031 C 964.746094 103.898438 963.011719 100.464844 961.273438 97.035156 L 959.410156 93.335938 L 958.539062 91.632812 C 956.585938 87.75 956.585938 87.75 956.585938 85.734375 L 953.871094 85.734375 L 953.617188 87.59375 C 952.808594 90.894531 951.363281 93.714844 949.796875 96.707031 C 946.988281 102.203125 944.273438 107.746094 941.652344 113.335938 C 939.234375 118.484375 936.765625 123.59375 934.1875 128.664062 C 931.820312 133.316406 929.582031 138.019531 927.398438 142.757812 L 926.613281 144.46875 C 925.304688 147.308594 924.003906 150.152344 922.707031 153 L 921.246094 156.1875 L 919.953125 159.039062 C 918.476562 161.945312 916.914062 164.578125 914.953125 167.183594 C 912.464844 167.523438 912.464844 167.523438 910.429688 167.183594 C 911.90625 163.4375 913.46875 159.734375 915.066406 156.039062 L 915.773438 154.378906 C 917.964844 149.332031 920.425781 144.429688 922.894531 139.523438 C 926.425781 132.503906 929.855469 125.4375 933.28125 118.371094 L 935.304688 114.199219 C 939.246094 106.074219 943.171875 97.945312 947.082031 89.804688 L 948.386719 87.089844 C 950.433594 82.820312 952.464844 78.542969 954.472656 74.253906 L 955.613281 71.816406 C 956.316406 70.320312 957.011719 68.820312 957.703125 67.320312 C 960.003906 62.402344 960.003906 62.402344 962.015625 60.394531 M 570.148438 60.394531 C 571.5 60.320312 572.847656 60.289062 574.199219 60.304688 L 576.664062 60.3125 L 579.257812 60.335938 L 581.859375 60.347656 C 583.988281 60.359375 586.121094 60.375 588.25 60.394531 C 589.054688 63.046875 589.171875 65 588.765625 67.734375 C 588.1875 72.304688 588.128906 76.789062 588.148438 81.390625 L 588.148438 84.070312 C 588.148438 86.964844 588.152344 89.855469 588.160156 92.75 L 588.164062 98.800781 C 588.167969 104.089844 588.175781 109.378906 588.1875 114.667969 C 588.195312 121.027344 588.203125 127.382812 588.207031 133.742188 C 588.21875 143.378906 588.234375 153.019531 588.25 162.65625 L 647.074219 162.65625 L 647.980469 166.277344 L 647.074219 167.183594 C 644.652344 167.269531 642.25 167.296875 639.828125 167.285156 L 637.527344 167.285156 C 635.003906 167.285156 632.484375 167.277344 629.960938 167.273438 L 624.730469 167.265625 C 620.132812 167.265625 615.53125 167.257812 610.933594 167.246094 C 606.246094 167.238281 601.554688 167.230469 596.867188 167.226562 C 587.660156 167.21875 578.453125 167.203125 569.246094 167.183594 C 569.222656 153.394531 569.207031 139.601562 569.199219 125.8125 C 569.195312 119.410156 569.1875 113.007812 569.175781 106.605469 C 569.167969 100.433594 569.160156 94.261719 569.160156 88.085938 C 569.15625 85.726562 569.15625 83.363281 569.148438 81.003906 C 569.144531 77.710938 569.140625 74.414062 569.140625 71.121094 L 569.132812 68.128906 L 569.136719 65.425781 L 569.132812 63.0625 L 569.246094 61.296875 Z M 570.148438 60.394531 " fill-opacity="1" fill-rule="nonzero"/><path fill="#b6673b" d="M 219.011719 57.679688 L 274.214844 57.679688 C 272.789062 61.242188 271.84375 63.144531 269.632812 66.050781 C 266.359375 70.621094 263.792969 75.398438 261.21875 80.382812 C 257.078125 88.359375 252.523438 96.089844 247.96875 103.832031 C 246.335938 103.203125 246.335938 103.203125 244.351562 102.023438 C 242.921875 100.070312 242.921875 100.070312 241.542969 97.636719 L 239.984375 94.921875 L 238.355469 92.011719 L 234.960938 86.074219 L 233.277344 83.109375 C 231.074219 79.253906 228.847656 75.414062 226.589844 71.59375 L 225.523438 69.765625 C 223.949219 67.082031 222.335938 64.460938 220.574219 61.898438 L 219.011719 59.488281 Z M 219.011719 57.679688 " fill-opacity="1" fill-rule="nonzero"/><path fill="#120b08" d="M 866.085938 210.625 C 869.144531 212.53125 871.53125 214.664062 873.476562 217.707031 C 875.039062 221.785156 874.597656 226.246094 874.230469 230.53125 C 873.0625 233.96875 871.980469 235.523438 869.367188 238 C 866.335938 240.019531 864.0625 241.1875 860.421875 241.660156 C 857.160156 241.84375 854.417969 241.777344 851.347656 240.601562 C 848.3125 238.878906 845.898438 236.921875 843.914062 234.039062 C 842.160156 230.457031 842.042969 226.914062 842.214844 222.972656 C 842.625 220.085938 843.277344 218.015625 844.902344 215.601562 C 847.734375 212.578125 851.273438 210.453125 855.179688 209.113281 C 858.945312 208.503906 862.515625 209.410156 866.085938 210.625 M 851.550781 217.355469 L 849.796875 219.671875 L 848.890625 220.578125 C 848.476562 224.425781 848.46875 227.757812 850.019531 231.324219 C 851.707031 233.371094 852.871094 234.722656 855.226562 235.964844 C 858.316406 236.566406 858.316406 236.566406 861.558594 235.964844 C 863.730469 234.65625 865.167969 233.257812 866.988281 231.4375 C 868.386719 228.648438 868.246094 225.976562 868.191406 222.890625 C 867.894531 220.558594 867.511719 219.230469 866.199219 217.296875 C 863.65625 215.054688 863.65625 215.054688 861.214844 214.664062 C 856.953125 214.417969 854.957031 214.640625 851.546875 217.355469 M 702.28125 209.71875 C 718.917969 209.71875 718.917969 209.71875 723.304688 211.476562 C 726.125 213.160156 727.609375 215.132812 729.429688 217.863281 C 730.742188 221.800781 730.679688 225.511719 730.335938 229.628906 C 729.730469 232.148438 728.957031 233.65625 727.621094 235.964844 C 725.613281 237.917969 724.074219 239.273438 721.398438 240.121094 C 719.335938 240.515625 717.457031 240.589844 715.359375 240.578125 L 713.273438 240.570312 L 710.652344 240.542969 L 702.28125 240.488281 Z M 708.613281 215.148438 L 708.613281 235.964844 C 715.113281 236.253906 715.113281 236.253906 718.34375 235.339844 C 720.480469 234.175781 720.480469 234.175781 722.472656 232.34375 C 724.027344 229.578125 724.34375 228.203125 724.507812 225.101562 C 724.480469 222.753906 724.480469 222.753906 724 220.578125 C 722.019531 218.023438 720.535156 216.582031 717.664062 215.148438 Z M 708.613281 215.148438 " fill-opacity="1" fill-rule="nonzero"/><path fill="#b6673b" d="M 953.660156 140.328125 C 956.597656 140.253906 959.136719 140.316406 962.015625 140.9375 C 964.894531 142.921875 966.640625 145.148438 968.351562 148.179688 C 969.367188 150.949219 969.367188 150.949219 969.253906 153.609375 C 968.15625 156.96875 967.007812 159.386719 964.730469 162.09375 C 962.921875 163.5625 962.921875 163.5625 960.203125 164.46875 C 953.882812 164.875 953.882812 164.875 950.421875 163.335938 C 948.417969 161.734375 947.082031 160.304688 945.726562 158.132812 C 944.644531 154.898438 944.585938 152.484375 944.820312 149.082031 C 946.710938 145.019531 949.164062 141.421875 953.660156 140.328125 " fill-opacity="1" fill-rule="nonzero"/><path fill="#120b08" d="M 622.640625 209.71875 C 624.449219 209.679688 626.261719 209.683594 628.070312 209.71875 L 628.976562 210.625 C 629.085938 212.203125 629.136719 213.785156 629.164062 215.367188 C 629.191406 216.332031 629.21875 217.296875 629.242188 218.289062 C 629.289062 220.335938 629.332031 222.382812 629.363281 224.429688 L 629.449219 227.359375 L 629.503906 230.054688 C 629.707031 232.371094 629.707031 232.371094 631.097656 233.988281 C 632.65625 235.273438 632.65625 235.273438 635.253906 235.453125 C 638.0625 235.285156 638.0625 235.285156 639.972656 233.542969 C 641.808594 231.554688 641.808594 231.554688 642.140625 229.035156 L 642.195312 226.332031 L 642.285156 223.398438 L 642.324219 220.351562 L 642.40625 217.261719 C 642.46875 214.746094 642.515625 212.234375 642.550781 209.71875 C 644.359375 209.679688 646.171875 209.683594 647.980469 209.71875 L 648.886719 210.625 C 649.140625 213.972656 649.09375 217.332031 649.109375 220.691406 L 649.167969 223.527344 C 649.195312 228.996094 648.859375 232.96875 646.171875 237.773438 C 644.027344 239.78125 642.640625 240.457031 639.835938 241.394531 C 636.78125 241.714844 633.835938 241.734375 630.785156 241.394531 C 627.636719 239.847656 625.917969 238.550781 623.867188 235.730469 C 622.421875 232.808594 622.328125 230.902344 622.375 227.660156 L 622.402344 224.484375 C 622.421875 223.402344 622.449219 222.316406 622.472656 221.199219 L 622.507812 217.859375 C 622.539062 215.144531 622.582031 212.433594 622.640625 209.71875 M 485.816406 209.492188 L 488.660156 209.421875 C 491.742188 209.753906 493.425781 210.667969 495.941406 212.433594 L 494.128906 216.957031 L 492.046875 216.5 L 489.320312 215.941406 L 486.617188 215.367188 L 484.175781 215.148438 L 481.460938 216.957031 C 481.503906 218.738281 481.503906 218.738281 482.363281 220.578125 C 484.753906 221.6875 484.753906 221.6875 487.625 222.386719 C 490.699219 223.226562 492.839844 223.894531 495.355469 225.871094 C 496.84375 227.816406 496.84375 227.816406 497.355469 229.792969 C 497.355469 231.941406 497.289062 233.859375 496.84375 235.964844 C 494.753906 238.679688 494.753906 238.679688 492.320312 240.488281 C 488.375 241.800781 484.675781 241.859375 480.554688 241.394531 C 477.90625 240.417969 475.757812 239.222656 473.316406 237.773438 L 475.125 233.25 L 477.726562 234.152344 C 481.960938 235.386719 486.136719 235.214844 490.511719 235.058594 C 490.511719 232.855469 490.511719 232.855469 489.605469 230.53125 C 487 229.085938 487 229.085938 483.835938 228.15625 C 478.230469 226.304688 478.230469 226.304688 476.164062 224.730469 C 475.125 223.292969 475.125 223.292969 474.21875 219.84375 C 474.03125 217.925781 474.03125 217.925781 474.21875 216.054688 C 475.472656 213.75 476.804688 212.472656 478.746094 210.625 C 481.167969 209.414062 483.109375 209.53125 485.816406 209.492188 M 546.621094 209.71875 L 571.054688 209.71875 L 571.960938 214.242188 L 571.054688 215.148438 C 569.527344 215.210938 568 215.226562 566.472656 215.207031 L 563.953125 215.179688 L 562.003906 215.148438 L 562.019531 217.460938 C 562.035156 220.28125 562.046875 223.101562 562.054688 225.925781 C 562.058594 227.148438 562.066406 228.371094 562.074219 229.59375 C 562.085938 231.347656 562.089844 233.101562 562.09375 234.855469 L 562.109375 238.058594 L 562.003906 240.488281 L 561.101562 241.394531 C 558.835938 241.507812 558.835938 241.507812 556.574219 241.394531 L 555.671875 240.488281 C 555.597656 238.613281 555.566406 236.734375 555.582031 234.855469 L 555.589844 231.402344 L 555.613281 227.761719 C 555.617188 226.542969 555.621094 225.328125 555.625 224.109375 C 555.636719 221.125 555.652344 218.136719 555.671875 215.148438 L 546.621094 215.148438 Z M 546.621094 209.71875 " fill-opacity="1" fill-rule="nonzero"/><path fill="#b7683c" d="M 362 222.386719 L 428.066406 222.386719 L 427.160156 226.914062 L 362.90625 226.914062 Z M 362 222.386719 " fill-opacity="1" fill-rule="nonzero"/><path fill="#b25524" d="M 961.957031 221.878906 L 969.097656 222.023438 C 974.882812 222.136719 980.667969 222.261719 986.449219 222.386719 L 987.355469 226.007812 C 984.730469 227.320312 982.457031 227.023438 979.523438 227.015625 L 977.652344 227.015625 C 975.605469 227.015625 973.558594 227.007812 971.511719 227 L 967.257812 226.996094 C 963.523438 226.992188 959.789062 226.984375 956.054688 226.976562 C 952.246094 226.96875 948.433594 226.960938 944.625 226.957031 C 937.148438 226.949219 929.671875 226.933594 922.195312 226.914062 L 922.195312 222.386719 C 935.425781 221.019531 948.683594 221.585938 961.957031 221.878906 M 218.105469 150.894531 L 219.914062 150.894531 C 218.726562 154.851562 217.183594 158.152344 215.046875 161.691406 L 213.207031 164.757812 L 212.242188 166.351562 C 210.59375 169.078125 208.960938 171.8125 207.328125 174.546875 L 206.351562 176.171875 C 202.597656 182.453125 199.011719 188.828125 195.480469 195.238281 L 193.671875 194.332031 L 193.671875 188.902344 L 191.859375 188 C 193.21875 184.324219 194.96875 181.039062 196.917969 177.648438 L 197.867188 175.996094 C 198.859375 174.261719 199.855469 172.53125 200.855469 170.804688 L 202.851562 167.316406 C 204.613281 164.25 206.375 161.1875 208.148438 158.132812 L 209.542969 155.542969 L 210.863281 153.609375 C 213.636719 152.988281 213.636719 152.988281 216.296875 152.703125 Z M 218.105469 150.894531 " fill-opacity="1" fill-rule="nonzero"/><path fill="#120b08" d="M 783.730469 209.71875 C 785.539062 209.683594 787.351562 209.679688 789.160156 209.71875 C 789.183594 214.082031 789.199219 218.449219 789.210938 222.8125 C 789.214844 224.300781 789.21875 225.789062 789.226562 227.273438 C 789.238281 229.40625 789.246094 231.535156 789.25 233.667969 L 789.261719 235.695312 C 789.261719 237.292969 789.214844 238.890625 789.160156 240.488281 L 788.253906 241.394531 C 785.992188 241.507812 785.992188 241.507812 783.730469 241.394531 L 782.824219 240.488281 C 782.734375 238.28125 782.699219 236.105469 782.703125 233.898438 L 782.703125 231.902344 C 782.703125 230.503906 782.703125 229.105469 782.707031 227.710938 C 782.710938 225.566406 782.707031 223.417969 782.699219 221.273438 C 782.699219 219.921875 782.703125 218.566406 782.703125 217.210938 L 782.699219 215.253906 C 782.707031 213.710938 782.761719 212.167969 782.824219 210.625 Z M 494.128906 111.976562 C 496.070312 111.898438 498.015625 111.882812 499.960938 111.890625 L 503.539062 111.898438 L 507.308594 111.921875 C 508.570312 111.925781 509.828125 111.929688 511.089844 111.933594 C 514.183594 111.945312 517.28125 111.960938 520.375 111.976562 C 520.882812 113.730469 520.882812 113.730469 521.28125 115.597656 L 520.375 116.503906 C 518.433594 116.582031 516.488281 116.601562 514.546875 116.59375 L 510.964844 116.582031 L 507.195312 116.558594 L 503.414062 116.546875 C 500.320312 116.535156 497.226562 116.523438 494.128906 116.503906 C 493.621094 114.75 493.621094 114.75 493.226562 112.882812 Z M 494.128906 111.976562 " fill-opacity="1" fill-rule="nonzero"/><path fill="#b25524" d="M 162.898438 219.671875 C 164.597656 221.144531 164.597656 221.144531 166.519531 223.292969 L 167.425781 226.179688 L 168.328125 228.722656 C 170.167969 229.601562 170.167969 229.601562 171.949219 229.628906 L 172.855469 227.816406 L 174.664062 228.722656 C 173.929688 230.929688 173.929688 230.929688 172.855469 233.25 L 170.140625 234.152344 C 168.929688 232.082031 167.722656 230.007812 166.519531 227.929688 L 165.472656 226.144531 C 162.898438 221.6875 162.898438 221.6875 162.898438 219.671875 " fill-opacity="1" fill-rule="nonzero"/><path fill="#b25625" d="M 945.726562 155.417969 C 949.167969 158.320312 952.554688 161.214844 955.679688 164.46875 C 953.25 164.355469 953.25 164.355469 950.25 163.5625 C 948.308594 161.894531 947.191406 160.292969 945.726562 158.132812 Z M 242.539062 97.5 L 249.78125 98.402344 L 247.96875 103.832031 C 246.273438 103.210938 246.273438 103.210938 244.351562 102.023438 C 243.21875 99.648438 243.21875 99.648438 242.539062 97.5 " fill-opacity="1" fill-rule="nonzero"/><path fill="#b25524" d="M 150.230469 197.953125 C 152.40625 200 154.097656 202.160156 155.773438 204.628906 L 157.195312 206.683594 C 158.4375 208.929688 158.914062 210.8125 159.28125 213.339844 C 156.394531 210.691406 154.558594 208.074219 152.71875 204.628906 L 151.289062 201.992188 C 150.230469 199.761719 150.230469 199.761719 150.230469 197.953125 M 964.730469 156.324219 L 967.445312 157.226562 C 966.273438 159.839844 965.039062 161.636719 962.921875 163.5625 L 959.300781 161.753906 L 962.015625 161.753906 L 962.863281 159.546875 C 963.824219 157.226562 963.824219 157.226562 964.730469 156.324219 M 219.011719 57.679688 L 224.441406 57.679688 L 223.535156 64.917969 C 221.070312 62.789062 220.082031 60.734375 219.011719 57.679688 M 177.378906 220.578125 L 179.191406 220.578125 C 177.742188 225.589844 177.742188 225.589844 175.910156 227.703125 L 174.664062 228.722656 L 173.761719 226.007812 C 175.402344 223.125 175.402344 223.125 177.378906 220.578125 " fill-opacity="1" fill-rule="nonzero"/><g clip-path="url(#2ce1b2a858)"><g clip-path="url(#5929a3c532)"><g transform="matrix(1, 0, 0, 1, 194, 73)"><g clip-path="url(#e365535538)"><g clip-path="url(#37ba497ae5)"><g clip-path="url(#85ec86b15f)"><rect x="-432.92" width="1563.84" fill="#b6673b" height="431.999983" y="-138.999997" fill-opacity="1"/></g></g></g></g></g></g><g clip-path="url(#88a3637462)"><g clip-path="url(#988f5f721f)"><g transform="matrix(1, 0, 0, 1, 198, 73)"><g clip-path="url(#978739da6c)"><g clip-path="url(#2df9c5cd2f)"><g clip-path="url(#516297ad39)"><rect x="-436.92" width="1563.84" fill="#b6673b" height="431.999983" y="-138.999997" fill-opacity="1"/></g></g></g></g></g></g><g clip-path="url(#a4cd09b169)"><g clip-path="url(#9b264efe59)"><g transform="matrix(1, 0, 0, 1, 198, 74)"><g clip-path="url(#b8626859b7)"><g clip-path="url(#f33e04b50f)"><g clip-path="url(#304ee221dc)"><rect x="-436.92" width="1563.84" fill="#b6673b" height="431.999983" y="-139.999997" fill-opacity="1"/></g></g></g></g></g></g></svg>