<svg xmlns="http://www.w3.org/2000/svg" xmlns:xlink="http://www.w3.org/1999/xlink" width="1024" zoomAndPan="magnify" viewBox="0 0 768 767.999994" height="1024" preserveAspectRatio="xMidYMid meet" version="1.0"><path fill="#1e1e1f" d="M 74.878906 172.160156 C 77.9375 173.6875 80.113281 175.113281 82.601562 177.320312 C 85.683594 179.988281 88.851562 182.554688 92.105469 185.019531 C 95.378906 187.511719 98.566406 190.109375 101.753906 192.714844 C 104.492188 194.945312 107.253906 197.148438 110.039062 199.320312 C 113.40625 201.945312 116.710938 204.636719 120 207.359375 C 124.085938 210.738281 128.214844 214.058594 132.398438 217.316406 C 134.140625 218.679688 135.875 220.054688 137.601562 221.441406 C 139.695312 223.121094 141.800781 224.785156 143.914062 226.441406 C 147.613281 229.335938 151.28125 232.269531 154.921875 235.242188 C 158.378906 238.066406 161.882812 240.835938 165.433594 243.546875 C 167.996094 245.507812 170.519531 247.507812 173.03125 249.53125 C 174.996094 251.101562 176.976562 252.648438 178.960938 254.199219 C 182.316406 256.824219 185.625 259.5 188.921875 262.199219 C 192.28125 264.953125 195.726562 267.585938 199.265625 270.105469 C 201.878906 272.039062 204.34375 274.148438 206.832031 276.246094 C 208.796875 277.890625 210.800781 279.46875 212.832031 281.03125 C 218.105469 285.09375 223.320312 289.230469 228.480469 293.441406 C 234.039062 297.972656 239.675781 302.402344 245.34375 306.800781 C 250.332031 310.671875 255.300781 314.558594 260.222656 318.511719 C 262.84375 320.613281 265.472656 322.695312 268.121094 324.761719 C 271.378906 327.308594 274.597656 329.902344 277.800781 332.519531 C 281.535156 335.566406 285.316406 338.546875 289.148438 341.46875 C 294.890625 345.855469 300.535156 350.371094 306.171875 354.890625 C 309.214844 357.332031 312.28125 359.746094 315.351562 362.148438 C 318.050781 364.265625 320.726562 366.410156 323.398438 368.558594 C 327.335938 371.726562 331.332031 374.804688 335.371094 377.839844 C 338.042969 379.863281 340.625 381.996094 343.125 384.234375 C 344.832031 385.726562 346.625 387.101562 348.421875 388.484375 C 354.175781 392.910156 359.839844 397.433594 365.460938 402.023438 C 368.578125 404.5625 371.726562 407.058594 374.894531 409.535156 C 379.816406 413.386719 384.679688 417.304688 389.550781 421.214844 C 392.910156 423.902344 396.277344 426.570312 399.664062 429.21875 C 402.453125 431.410156 405.234375 433.617188 408 435.839844 C 411.460938 438.617188 414.941406 441.378906 418.433594 444.113281 C 420.273438 445.554688 422.113281 446.996094 423.953125 448.433594 C 428.40625 451.914062 432.8125 455.453125 437.191406 459.03125 C 439.800781 461.15625 442.445312 463.238281 445.121094 465.28125 C 448.695312 468.007812 452.1875 470.824219 455.671875 473.671875 C 458.800781 476.21875 461.953125 478.734375 465.132812 481.214844 C 470.054688 485.066406 474.921875 488.984375 479.792969 492.894531 C 482.382812 494.972656 484.980469 497.035156 487.59375 499.078125 C 491.292969 501.972656 494.960938 504.90625 498.601562 507.878906 C 501.710938 510.421875 504.84375 512.925781 508.039062 515.359375 C 511.222656 517.785156 514.332031 520.289062 517.417969 522.832031 C 519.320312 524.390625 521.257812 525.902344 523.207031 527.40625 C 525.558594 529.230469 527.898438 531.070312 530.238281 532.914062 C 532.144531 534.414062 534.054688 535.910156 535.96875 537.40625 C 540.023438 540.578125 544.046875 543.785156 548.039062 547.039062 C 552.195312 550.429688 556.40625 553.75 560.667969 557.007812 C 564.003906 559.558594 567.320312 562.125 570.558594 564.800781 C 573.042969 566.847656 575.5625 568.847656 578.121094 570.800781 C 584.355469 575.574219 590.523438 580.425781 596.601562 585.398438 C 599.425781 587.710938 602.261719 589.964844 605.242188 592.078125 C 607.847656 593.9375 610.292969 595.917969 612.71875 598 C 616.410156 601.167969 620.222656 604.152344 624.097656 607.097656 C 630.617188 612.0625 637.050781 617.140625 643.398438 622.324219 C 645.976562 624.433594 648.59375 626.5 651.242188 628.519531 C 654.648438 631.121094 658 633.777344 661.339844 636.460938 C 664.011719 638.605469 666.699219 640.730469 669.398438 642.839844 C 672.707031 645.433594 675.988281 648.058594 679.242188 650.71875 C 682.277344 653.195312 685.324219 655.65625 688.425781 658.046875 C 691.566406 660.472656 694.675781 662.929688 697.789062 665.382812 C 698.816406 666.1875 699.84375 666.988281 700.878906 667.785156 L 702.640625 669.160156 L 704.195312 670.363281 L 705.28125 671.359375 L 705.28125 672.640625 C 681.800781 672.773438 658.324219 672.867188 634.847656 672.921875 L 633.351562 672.925781 C 625.359375 672.949219 617.371094 672.988281 609.382812 673.035156 C 601.183594 673.082031 592.980469 673.113281 584.777344 673.121094 C 579.71875 673.128906 574.660156 673.152344 569.601562 673.191406 C 565.71875 673.222656 561.835938 673.226562 557.953125 673.21875 C 556.363281 673.21875 554.773438 673.230469 553.183594 673.25 C 540.5625 673.398438 540.5625 673.398438 537.066406 671.539062 C 535.339844 670.300781 533.9375 669.054688 532.480469 667.519531 C 531.582031 666.785156 530.671875 666.066406 529.753906 665.355469 C 528.929688 664.679688 528.101562 664 527.28125 663.320312 L 524.621094 661.140625 L 523.363281 660.113281 C 521.585938 658.667969 519.773438 657.261719 517.957031 655.859375 C 511.773438 651.089844 505.6875 646.210938 499.636719 641.277344 C 493.074219 635.929688 486.417969 630.699219 479.738281 625.5 C 475.0625 621.855469 470.46875 618.125 465.902344 614.347656 C 462.753906 611.746094 459.558594 609.207031 456.320312 606.71875 C 451.082031 602.640625 445.886719 598.511719 440.753906 594.296875 C 438.277344 592.269531 435.753906 590.328125 433.183594 588.417969 C 431.578125 587.199219 430.050781 585.90625 428.519531 584.601562 C 425.382812 581.949219 422.152344 579.4375 418.878906 576.960938 C 415.039062 574.050781 411.28125 571.039062 407.601562 567.925781 C 405.355469 566.066406 403.046875 564.296875 400.726562 562.535156 C 397.878906 560.359375 395.09375 558.109375 392.320312 555.839844 C 389.195312 553.285156 386.050781 550.765625 382.839844 548.320312 C 379.710938 545.933594 376.660156 543.472656 373.628906 540.96875 C 371.402344 539.164062 369.125 537.429688 366.84375 535.691406 C 363.476562 533.109375 360.1875 530.433594 356.902344 527.746094 C 354.753906 525.996094 352.601562 524.25 350.398438 522.558594 C 347.761719 520.527344 345.179688 518.425781 342.601562 516.320312 C 337.882812 512.476562 333.117188 508.703125 328.320312 504.960938 C 323.550781 501.234375 318.808594 497.480469 314.132812 493.636719 C 310.21875 490.449219 306.226562 487.359375 302.253906 484.253906 C 301.152344 483.398438 300.054688 482.539062 298.960938 481.679688 L 297.847656 480.808594 C 294.988281 478.5625 292.171875 476.265625 289.359375 473.960938 C 285.945312 471.167969 282.46875 468.460938 278.921875 465.839844 C 275.445312 463.269531 272.074219 460.566406 268.804688 457.738281 C 265.546875 454.941406 262.132812 452.363281 258.710938 449.773438 C 255.347656 447.222656 252.101562 444.566406 248.878906 441.84375 C 246.652344 439.996094 244.359375 438.25 242.054688 436.503906 C 237.613281 433.105469 233.335938 429.503906 229.027344 425.9375 C 224.164062 421.925781 219.171875 418.078125 214.191406 414.214844 C 210.957031 411.703125 207.765625 409.140625 204.609375 406.53125 C 202.5625 404.859375 200.484375 403.230469 198.398438 401.601562 C 195.085938 399.007812 191.804688 396.371094 188.558594 393.695312 C 185.886719 391.503906 183.183594 389.351562 180.480469 387.199219 L 179.199219 387.839844 L 179.199219 389.660156 C 179.222656 429.511719 179.234375 469.359375 179.234375 509.210938 L 179.234375 510.496094 C 179.238281 524.277344 179.242188 538.054688 179.25 551.832031 C 179.253906 566.386719 179.257812 580.9375 179.261719 595.492188 C 179.261719 604.214844 179.265625 612.9375 179.269531 621.660156 C 179.273438 627.632812 179.273438 633.609375 179.273438 639.582031 C 179.273438 643.03125 179.273438 646.484375 179.277344 649.9375 C 179.277344 653.089844 179.28125 656.246094 179.277344 659.398438 C 179.277344 660.546875 179.277344 661.691406 179.28125 662.839844 C 179.28125 664.386719 179.28125 665.9375 179.277344 667.484375 L 179.285156 668.859375 C 179.277344 669.90625 179.246094 670.953125 179.199219 672 L 178.558594 672.640625 L 74.878906 672.640625 Z M 74.878906 172.160156 " fill-opacity="1" fill-rule="nonzero"/><path fill="#dc8152" d="M 548.480469 111.359375 L 549.761719 112 C 550.089844 113.769531 550.089844 113.769531 550.332031 116.1875 L 550.472656 117.527344 C 550.628906 119.019531 550.773438 120.507812 550.917969 122 L 551.246094 125.167969 C 551.480469 127.449219 551.714844 129.734375 551.945312 132.019531 C 552.328125 135.789062 552.726562 139.550781 553.128906 143.316406 L 553.753906 149.140625 C 554.160156 152.953125 554.566406 156.769531 554.972656 160.585938 C 555.304688 163.738281 555.640625 166.894531 555.96875 170.046875 L 556.363281 173.792969 C 556.511719 175.214844 556.660156 176.632812 556.808594 178.050781 C 557.148438 181.308594 557.566406 184.554688 558.054688 187.789062 C 559.03125 194.488281 559.535156 201.238281 560.113281 207.976562 C 560.695312 214.761719 561.378906 221.484375 562.558594 228.191406 C 563.132812 231.519531 563.378906 234.785156 563.480469 238.160156 C 564.097656 253.644531 566.875 270.679688 573.441406 284.800781 L 574.28125 286.648438 C 575.488281 289.175781 576.789062 291.496094 578.441406 293.761719 L 579.839844 295.679688 L 579.839844 296.960938 L 581.121094 296.960938 C 581.976562 298.023438 582.828125 299.089844 583.679688 300.160156 C 595.238281 310.429688 610.355469 313.53125 625.070312 316.644531 C 631.808594 318.011719 638.625 318.871094 645.441406 319.761719 C 646.820312 319.945312 648.203125 320.128906 649.582031 320.316406 C 654.984375 321.039062 660.390625 321.746094 665.796875 322.4375 C 671.855469 323.21875 677.902344 324.003906 683.917969 325.078125 C 690.617188 326.238281 697.335938 327.1875 704.074219 328.066406 C 708.164062 328.609375 712.148438 329.269531 716.160156 330.238281 L 715.519531 332.160156 L 714.046875 332.363281 C 709.390625 333 704.734375 333.640625 700.078125 334.28125 C 697.683594 334.609375 695.292969 334.9375 692.898438 335.265625 C 682.972656 336.625 673.050781 338 663.164062 339.632812 C 658.90625 340.335938 654.640625 340.949219 650.359375 341.519531 L 648.492188 341.769531 L 646.871094 341.984375 C 643.980469 342.375 641.105469 342.839844 638.230469 343.34375 C 635.925781 343.71875 633.613281 344.039062 631.296875 344.355469 C 626.015625 345.082031 620.820312 345.90625 615.621094 347.105469 C 614.414062 347.375 613.199219 347.605469 611.976562 347.792969 C 603.242188 349.355469 595.027344 352.421875 587.519531 357.121094 L 585.710938 358.246094 C 579.746094 362.464844 576.613281 369.082031 573.519531 375.519531 C 572.054688 378.886719 571.089844 382.351562 570.238281 385.921875 L 568.960938 385.921875 L 569.082031 388.28125 C 569.085938 390.71875 568.726562 392.757812 568.078125 395.105469 C 566.507812 401.683594 566.199219 408.433594 565.679688 415.160156 C 565.519531 417.183594 565.355469 419.207031 565.191406 421.230469 C 565.089844 422.480469 564.992188 423.730469 564.894531 424.980469 C 564.671875 427.828125 564.425781 430.667969 564.132812 433.507812 C 563.921875 435.582031 563.753906 437.636719 563.703125 439.722656 L 563.652344 441.429688 L 563.601562 443.242188 C 563.339844 450.652344 562.683594 458.003906 561.976562 465.382812 C 561.441406 471.007812 561.011719 476.621094 560.773438 482.265625 C 560.640625 484.480469 560.640625 484.480469 560.332031 486.503906 C 559.964844 489.226562 559.804688 491.917969 559.679688 494.660156 L 559.601562 496.292969 C 559.519531 498.007812 559.4375 499.722656 559.359375 501.441406 C 559.230469 504.234375 559.097656 507.03125 558.960938 509.824219 C 558.726562 514.605469 558.421875 519.382812 558.078125 524.160156 C 555.847656 523.664062 554.46875 522.917969 552.640625 521.519531 L 551.179688 520.433594 C 549.0625 518.355469 547.675781 516.113281 546.8125 513.289062 C 546.476562 511.839844 546.210938 510.386719 545.960938 508.917969 L 545.644531 507.148438 C 545.296875 505.140625 544.964844 503.132812 544.640625 501.121094 L 544.296875 499.039062 C 540.292969 474.199219 537.402344 449.070312 534.878906 424.039062 C 532.5625 394.792969 532.5625 394.792969 521.378906 368.164062 L 520.320312 366.71875 L 519.480469 365.433594 C 515.632812 359.601562 509.800781 356.433594 503.722656 353.285156 C 495.097656 349.074219 485.546875 347.285156 476.113281 345.964844 C 472.589844 345.453125 469.074219 344.886719 465.558594 344.320312 L 463.40625 343.972656 C 458.199219 343.140625 458.199219 343.140625 455.609375 342.707031 C 447.273438 341.320312 438.910156 340.183594 430.507812 339.257812 C 427.703125 338.9375 424.957031 338.601562 422.210938 337.945312 C 418.035156 336.957031 413.769531 336.503906 409.519531 335.960938 L 406.9375 335.625 C 405.351562 335.417969 403.765625 335.210938 402.179688 335.007812 C 398.746094 334.554688 395.328125 334.054688 391.921875 333.441406 C 388.351562 332.832031 384.808594 332.53125 381.195312 332.316406 C 379.519531 332.160156 379.519531 332.160156 378.238281 331.519531 L 378.238281 330.238281 C 388.996094 328.523438 399.753906 326.867188 410.550781 325.40625 C 415.546875 324.726562 420.539062 323.988281 425.519531 323.199219 C 431.546875 322.25 437.585938 321.4375 443.640625 320.679688 C 478.878906 316.882812 478.878906 316.882812 510.757812 302.640625 C 518.332031 296.757812 523.707031 289.136719 527.359375 280.320312 C 528.914062 275.917969 530.105469 271.414062 531.199219 266.878906 L 531.527344 265.597656 C 532.785156 260.421875 533.378906 255.109375 534.078125 249.839844 L 534.296875 248.234375 C 535.183594 241.613281 535.976562 235.007812 536.488281 228.347656 C 536.921875 222.84375 537.535156 217.363281 538.160156 211.878906 C 539.117188 203.433594 540.007812 194.980469 540.839844 186.519531 C 541.550781 179.328125 542.273438 172.140625 543.082031 164.960938 L 543.3125 162.902344 L 543.769531 158.863281 C 544.90625 148.75 545.980469 138.648438 546.75 128.503906 C 547.191406 122.769531 547.796875 117.066406 548.480469 111.359375 " fill-opacity="1" fill-rule="nonzero"/><path fill="#080809" d="M 312.960938 491.519531 C 314.003906 491.644531 314.003906 491.644531 315.519531 492.160156 C 316.808594 493.15625 318.0625 494.195312 319.28125 495.28125 C 320.019531 495.921875 320.761719 496.566406 321.503906 497.207031 L 322.664062 498.207031 C 324.566406 499.8125 326.519531 501.351562 328.480469 502.878906 L 329.625 503.773438 C 330.683594 504.597656 331.742188 505.417969 332.800781 506.238281 L 335.839844 508.601562 L 337.183594 509.640625 C 338.191406 510.429688 339.1875 511.230469 340.175781 512.039062 C 343.152344 514.472656 346.027344 516.621094 349.441406 518.398438 L 349.441406 520.320312 L 350.792969 520.753906 C 353.054688 521.789062 354.753906 523.25 356.601562 524.878906 C 357.335938 525.519531 358.074219 526.15625 358.816406 526.792969 L 359.914062 527.742188 C 362.339844 529.820312 364.84375 531.792969 367.359375 533.761719 L 368.734375 534.835938 C 370.722656 536.363281 372.667969 537.742188 374.878906 538.921875 C 376.960938 540.160156 376.960938 540.160156 378.085938 541.613281 C 379.847656 543.757812 381.835938 545.292969 384.039062 546.960938 C 384.835938 547.566406 385.628906 548.175781 386.421875 548.785156 L 387.480469 549.585938 C 388.480469 550.398438 388.480469 550.398438 389.492188 551.421875 C 390.371094 552.386719 390.371094 552.386719 391.640625 552.917969 C 392.960938 553.601562 392.960938 553.601562 394.09375 554.746094 C 395.695312 556.335938 397.394531 557.644531 399.199219 559 C 402.523438 561.519531 405.773438 564.117188 409 566.761719 C 412.585938 569.691406 416.242188 572.535156 419.96875 575.289062 C 422.988281 577.566406 425.882812 579.992188 428.800781 582.402344 C 429.96875 583.363281 431.144531 584.324219 432.320312 585.28125 L 433.859375 586.539062 C 435.210938 587.632812 435.210938 587.632812 437.121094 588.160156 L 437.121094 590.082031 L 438.175781 590.558594 C 440.007812 591.535156 441.582031 592.710938 443.238281 593.960938 L 444.25 594.722656 C 447.164062 596.933594 449.972656 599.261719 452.753906 601.636719 C 454.402344 602.964844 454.402344 602.964844 456.5 603.921875 L 458.238281 604.800781 C 458.640625 606.121094 458.640625 606.121094 458.878906 607.359375 C 459.976562 608.015625 459.976562 608.015625 461.441406 608.640625 C 462.59375 609.445312 463.71875 610.277344 464.84375 611.121094 C 465.996094 611.960938 465.996094 611.960938 467.839844 612.480469 C 468.703125 613.539062 469.554688 614.605469 470.398438 615.679688 C 471.453125 616.605469 472.535156 617.496094 473.640625 618.359375 L 475.300781 619.667969 C 476.417969 620.503906 477.558594 621.308594 478.71875 622.078125 L 478.71875 623.359375 L 479.789062 623.84375 C 481.554688 624.785156 483.078125 625.917969 484.679688 627.121094 C 486.671875 628.59375 488.601562 629.980469 490.800781 631.121094 C 493.09375 632.496094 494.296875 634.117188 496 636.160156 C 497.101562 636.875 498.230469 637.476562 499.394531 638.082031 C 501.097656 639.082031 502.328125 640.496094 503.679688 641.921875 L 505.480469 643.320312 L 506.878906 644.480469 L 506.878906 645.761719 L 508.277344 646.238281 C 510.265625 647.121094 511.65625 648.203125 513.320312 649.601562 C 515.179688 651.15625 516.863281 652.386719 519.039062 653.441406 C 520.121094 654.492188 521.1875 655.558594 522.238281 656.640625 C 525.222656 659.503906 525.222656 659.503906 528.640625 661.761719 L 528.640625 663.039062 L 530.199219 663.558594 L 531.839844 664.320312 L 532.480469 666.238281 C 533.535156 666.691406 534.605469 667.113281 535.679688 667.519531 L 537.410156 668.820312 C 539.453125 670.039062 540.691406 670.386719 543.046875 670.425781 L 544.378906 670.414062 L 545.824219 670.425781 C 547.410156 670.441406 549 670.433594 550.589844 670.429688 C 551.730469 670.433594 552.875 670.441406 554.015625 670.449219 C 557.109375 670.46875 560.207031 670.46875 563.300781 670.46875 C 566.535156 670.472656 569.773438 670.488281 573.011719 670.5 C 579.136719 670.527344 585.261719 670.539062 591.390625 670.550781 C 598.367188 670.558594 605.339844 670.585938 612.316406 670.609375 C 626.664062 670.660156 641.011719 670.699219 655.359375 670.71875 L 656 672.640625 C 640.933594 672.757812 625.867188 672.851562 610.804688 672.90625 C 603.808594 672.933594 596.8125 672.96875 589.816406 673.027344 C 583.71875 673.078125 577.617188 673.109375 571.519531 673.121094 C 568.292969 673.128906 565.0625 673.144531 561.835938 673.179688 C 558.792969 673.214844 555.753906 673.226562 552.710938 673.21875 C 551.597656 673.21875 550.484375 673.230469 549.371094 673.25 C 541.003906 673.390625 541.003906 673.390625 537.34375 671.539062 C 535.601562 670.285156 534.042969 668.980469 532.480469 667.519531 C 531.578125 666.792969 530.667969 666.070312 529.753906 665.355469 C 528.929688 664.679688 528.101562 664 527.28125 663.320312 L 524.621094 661.140625 L 523.363281 660.113281 C 521.585938 658.667969 519.773438 657.261719 517.957031 655.859375 C 511.773438 651.089844 505.6875 646.210938 499.636719 641.277344 C 493.074219 635.929688 486.417969 630.699219 479.738281 625.5 C 475.0625 621.855469 470.46875 618.125 465.902344 614.347656 C 462.753906 611.746094 459.558594 609.207031 456.320312 606.71875 C 451.082031 602.640625 445.886719 598.511719 440.753906 594.296875 C 438.277344 592.269531 435.753906 590.328125 433.183594 588.417969 C 431.578125 587.199219 430.050781 585.90625 428.519531 584.601562 C 425.382812 581.949219 422.152344 579.4375 418.878906 576.960938 C 415.039062 574.050781 411.28125 571.039062 407.601562 567.925781 C 405.355469 566.066406 403.046875 564.296875 400.726562 562.535156 C 397.878906 560.359375 395.09375 558.109375 392.320312 555.839844 C 389.195312 553.285156 386.050781 550.765625 382.839844 548.320312 C 379.710938 545.933594 376.660156 543.472656 373.628906 540.96875 C 371.402344 539.164062 369.125 537.429688 366.84375 535.691406 C 363.476562 533.109375 360.1875 530.433594 356.902344 527.746094 C 354.753906 525.996094 352.601562 524.25 350.398438 522.558594 C 347.761719 520.527344 345.179688 518.425781 342.601562 516.320312 C 338.246094 512.777344 333.855469 509.277344 329.429688 505.828125 C 326.769531 503.75 324.117188 501.664062 321.464844 499.574219 C 320.105469 498.503906 318.742188 497.441406 317.375 496.386719 L 315.601562 495 L 314.042969 493.796875 L 312.960938 492.800781 Z M 74.878906 172.160156 C 77.777344 173.609375 79.734375 174.761719 82.160156 176.761719 L 83.855469 178.148438 L 85.121094 179.199219 L 83.839844 180.480469 L 82.625 179.757812 L 81.039062 178.839844 L 79.464844 177.917969 L 78.078125 177.28125 L 76.800781 177.921875 C 76.128906 190.113281 76.074219 202.285156 76.09375 214.488281 C 76.097656 217.304688 76.101562 220.121094 76.101562 222.933594 C 76.101562 227.808594 76.105469 232.679688 76.113281 237.550781 C 76.121094 244.660156 76.125 251.769531 76.125 258.875 C 76.125 271.191406 76.132812 283.515625 76.148438 295.84375 L 76.171875 327.144531 L 76.175781 329.203125 C 76.183594 340.734375 76.191406 352.265625 76.195312 363.796875 C 76.195312 370.222656 76.199219 376.648438 76.207031 383.078125 C 76.25 419.441406 75.992188 455.796875 75.519531 492.160156 L 74.878906 492.160156 Z M 74.878906 655.359375 L 75.519531 655.359375 L 75.519531 671.359375 L 179.199219 670.71875 L 178.558594 672.640625 L 74.878906 672.640625 Z M 344.320312 385.921875 C 346.792969 386.992188 348.792969 388.609375 350.878906 390.28125 L 352.058594 391.214844 C 355.480469 393.933594 358.871094 396.695312 362.257812 399.457031 C 365.4375 402.042969 368.644531 404.59375 371.878906 407.113281 C 374.144531 408.886719 376.378906 410.6875 378.601562 412.519531 C 381.390625 414.816406 384.234375 417.03125 387.105469 419.222656 C 391.460938 422.554688 395.726562 426 400 429.441406 L 398.71875 430.71875 L 397.644531 429.761719 L 396.238281 428.519531 L 394.84375 427.28125 C 393.660156 426.207031 393.660156 426.207031 392.320312 425.601562 L 392.320312 424.320312 L 390.859375 424.117188 C 389.121094 423.679688 389.121094 423.679688 388.003906 422.863281 L 386.917969 421.800781 C 384.210938 419.292969 381.285156 417.210938 378.246094 415.128906 C 375.863281 413.472656 373.875 411.6875 371.839844 409.601562 C 370.921875 408.847656 369.988281 408.113281 369.039062 407.398438 C 367.246094 406.03125 365.5 404.644531 363.800781 403.160156 C 362.238281 401.796875 360.632812 400.542969 358.960938 399.320312 C 357.441406 398.203125 356.207031 397.160156 354.878906 395.800781 C 353.164062 394.125 351.417969 393.011719 349.355469 391.816406 C 348.140625 391.027344 347.25 390.152344 346.238281 389.121094 L 344.320312 387.839844 Z M 188.800781 263.679688 C 190.753906 263.910156 191.910156 264.257812 193.539062 265.394531 L 195.160156 266.800781 L 197.015625 268.371094 L 198.003906 269.214844 C 199.820312 270.734375 201.691406 272.183594 203.558594 273.640625 C 206.121094 275.636719 208.664062 277.652344 211.199219 279.679688 C 213.292969 281.359375 215.398438 283.027344 217.515625 284.679688 C 221.710938 287.960938 225.859375 291.296875 229.988281 294.667969 C 233.070312 297.1875 236.195312 299.65625 239.359375 302.078125 L 237.441406 302.71875 C 236.246094 302.03125 236.246094 302.03125 234.960938 301 L 233.59375 299.921875 L 232.320312 298.878906 L 230.558594 297.480469 L 229.121094 296.320312 L 227.640625 295.28125 L 226.558594 294.398438 L 226.558594 293.121094 L 225.121094 292.640625 C 223.195312 291.765625 222.261719 290.789062 220.800781 289.28125 C 219.914062 288.6875 219.019531 288.097656 218.125 287.515625 C 213.65625 284.457031 209.632812 280.824219 205.710938 277.105469 C 204.164062 275.742188 204.164062 275.742188 202.089844 274.832031 L 200.320312 273.921875 L 199.679688 272 C 198.585938 271.53125 197.484375 271.078125 196.375 270.640625 C 194.527344 269.757812 193.359375 268.382812 192 266.878906 L 190.199219 265.082031 Z M 239.359375 303.359375 C 241.316406 303.738281 242.511719 304.300781 244.042969 305.5625 L 245.234375 306.527344 L 246.480469 307.558594 L 247.777344 308.617188 C 248.636719 309.316406 249.496094 310.019531 250.351562 310.722656 C 251.828125 311.929688 253.308594 313.128906 254.800781 314.320312 L 256.320312 315.539062 C 258.144531 316.976562 259.992188 318.390625 261.839844 319.800781 C 266.40625 323.289062 270.855469 326.925781 275.304688 330.566406 C 277.820312 332.605469 280.34375 334.628906 282.878906 336.640625 L 280.960938 337.28125 C 279.625 336.429688 279.625 336.429688 278.160156 335.199219 C 276.605469 333.925781 275.171875 332.785156 273.441406 331.761719 C 271.609375 330.640625 270.320312 329.199219 268.800781 327.679688 C 265.460938 324.851562 265.460938 324.851562 261.761719 322.558594 L 261.761719 320.640625 L 257.921875 319.359375 L 257.921875 318.078125 L 256.359375 317.558594 L 254.71875 316.800781 L 254.078125 314.878906 C 253.230469 314.660156 252.375 314.445312 251.519531 314.238281 C 250.238281 313.242188 250.238281 313.242188 248.960938 312.039062 C 247.3125 310.5 245.859375 309.460938 243.839844 308.480469 C 242.085938 306.851562 240.691406 305.355469 239.359375 303.359375 M 85.761719 181.121094 C 89.039062 182.121094 91.300781 184.15625 93.878906 186.320312 L 96.640625 188.601562 L 97.984375 189.710938 C 99.472656 190.941406 100.96875 192.15625 102.480469 193.359375 L 103.984375 194.558594 C 105.542969 195.796875 107.113281 197.019531 108.679688 198.246094 C 112.65625 201.355469 116.585938 204.511719 120.480469 207.71875 C 120.953125 208.109375 121.425781 208.496094 121.914062 208.898438 C 125.273438 211.675781 125.273438 211.675781 126.71875 213.121094 L 125.441406 213.761719 C 122.261719 211.324219 119.136719 208.871094 116.164062 206.183594 C 115.125 205.296875 115.125 205.296875 113.28125 204.800781 C 112.207031 203.742188 111.140625 202.675781 110.078125 201.601562 C 108.75 200.539062 107.402344 199.5 106.039062 198.480469 C 98.699219 192.910156 98.699219 192.910156 96.640625 190.71875 L 96.640625 189.441406 C 96.179688 189.273438 95.722656 189.105469 95.246094 188.933594 C 93.359375 188.125 91.804688 187.167969 90.121094 186 L 88.453125 184.867188 C 87.039062 183.679688 86.429688 182.820312 85.761719 181.121094 M 282.878906 337.28125 C 284.757812 338.15625 286.332031 339.167969 287.960938 340.441406 L 289.40625 341.566406 L 290.917969 342.761719 L 292.46875 343.972656 C 296.359375 347.019531 300.203125 350.121094 304 353.28125 L 302.078125 353.921875 C 300.914062 353.328125 300.914062 353.328125 299.71875 352.441406 L 298.511719 351.566406 L 297.601562 350.71875 L 297.601562 349.441406 L 296.238281 349 C 294.484375 348.199219 293.25 347.273438 291.8125 346.003906 C 289.460938 344.042969 286.917969 342.3125 284.425781 340.535156 L 282.878906 339.199219 Z M 156.800781 237.441406 C 159.371094 238.539062 161.4375 240.265625 163.601562 242 L 164.796875 242.953125 C 165.597656 243.585938 166.394531 244.222656 167.191406 244.863281 C 168.199219 245.660156 169.207031 246.457031 170.21875 247.25 C 172.945312 249.398438 175.542969 251.542969 177.921875 254.078125 L 176.640625 254.71875 C 172.839844 251.796875 169.101562 248.792969 165.425781 245.707031 C 164.058594 244.648438 162.824219 243.945312 161.28125 243.199219 C 159.328125 241.433594 157.800781 239.894531 156.800781 237.441406 M 322.558594 368.640625 C 324.613281 369.570312 326.222656 370.730469 327.960938 372.160156 C 331.214844 374.808594 334.53125 377.363281 337.871094 379.90625 C 339.847656 381.445312 341.765625 383.027344 343.679688 384.640625 C 342.613281 385.121094 342.613281 385.121094 341.121094 385.28125 C 339.488281 384.21875 339.488281 384.21875 337.71875 382.679688 L 335.828125 381.058594 L 334.078125 379.519531 C 333.335938 378.878906 332.585938 378.238281 331.839844 377.601562 L 330.816406 376.710938 C 329.808594 375.863281 328.792969 375.03125 327.761719 374.210938 L 325.800781 372.640625 L 323.941406 371.171875 L 322.558594 369.921875 Z M 135.039062 220.160156 C 137.511719 221.234375 139.511719 222.851562 141.601562 224.519531 L 142.761719 225.4375 C 147.472656 229.183594 152.136719 232.992188 156.800781 236.800781 L 154.878906 237.441406 C 153.65625 236.703125 153.65625 236.703125 152.28125 235.558594 L 150.746094 234.308594 L 149.121094 232.960938 C 148.015625 232.078125 146.90625 231.199219 145.800781 230.320312 C 144.773438 229.496094 143.746094 228.667969 142.71875 227.839844 L 141.484375 226.851562 C 138.957031 224.792969 138.957031 224.792969 138.238281 223.359375 L 136.601562 222.398438 L 135.039062 221.441406 Z M 662.398438 638.078125 C 664.871094 639.152344 666.871094 640.769531 668.960938 642.441406 L 670.121094 643.359375 C 674.832031 647.105469 679.496094 650.910156 684.160156 654.71875 L 682.238281 655.359375 C 680.71875 654.28125 680.71875 654.28125 679.039062 652.800781 L 677.519531 651.601562 C 676.207031 650.53125 674.914062 649.4375 673.640625 648.320312 C 671.335938 646.335938 668.867188 644.703125 666.308594 643.0625 L 665.078125 642.238281 L 663.949219 641.5 C 663.039062 640.640625 663.039062 640.640625 662.59375 639.261719 Z M 304 353.921875 C 306.570312 355.019531 308.636719 356.746094 310.800781 358.480469 L 311.992188 359.425781 C 313.167969 360.359375 314.34375 361.300781 315.519531 362.238281 L 317.53125 363.84375 C 318.996094 365.011719 320.457031 366.183594 321.921875 367.359375 L 320.640625 368.640625 C 318.71875 367.148438 316.796875 365.65625 314.878906 364.160156 L 313.757812 363.289062 C 312.558594 362.351562 311.359375 361.417969 310.160156 360.480469 L 308.984375 359.566406 C 305.128906 356.546875 305.128906 356.546875 304 355.199219 Z M 476.160156 491.519531 C 477.5 491.628906 477.5 491.628906 479.359375 492.160156 C 480.796875 493.214844 482.183594 494.335938 483.519531 495.519531 L 484.597656 496.449219 C 486.785156 498.347656 488.855469 500.328125 490.878906 502.398438 L 489.601562 503.039062 L 488.773438 502.285156 C 485.589844 499.4375 482.273438 496.824219 478.859375 494.265625 C 477.949219 493.574219 477.050781 492.875 476.160156 492.160156 Z M 497.28125 507.519531 C 499.875 508.636719 501.957031 510.351562 504.160156 512.078125 L 505.328125 512.988281 C 506.273438 513.722656 507.21875 514.460938 508.160156 515.199219 L 506.878906 516.480469 L 505.894531 515.730469 L 504.558594 514.71875 L 503.152344 513.65625 C 501.980469 512.800781 500.796875 512.035156 499.558594 511.28125 L 497.921875 510.078125 C 497.359375 508.640625 497.359375 508.640625 497.28125 507.519531 " fill-opacity="1" fill-rule="nonzero"/><path fill="#080809" d="M 177.921875 254.078125 C 180.511719 255.195312 182.597656 256.910156 184.800781 258.640625 L 185.96875 259.546875 C 186.914062 260.285156 187.855469 261.019531 188.800781 261.761719 L 187.519531 263.039062 C 186.664062 262.429688 185.808594 261.816406 184.960938 261.199219 L 183.519531 260.164062 L 182.398438 259.199219 L 182.398438 257.921875 L 180.878906 257.800781 L 179.199219 257.28125 C 178.359375 255.640625 178.359375 255.640625 177.921875 254.078125 M 655.359375 632.960938 C 656.914062 633.230469 657.867188 633.558594 659.148438 634.503906 L 660.320312 635.558594 L 661.511719 636.621094 L 662.398438 637.441406 L 660.480469 638.078125 C 658.519531 637.359375 658.519531 637.359375 656.640625 636.160156 C 655.761719 634.441406 655.761719 634.441406 655.359375 632.960938 " fill-opacity="1" fill-rule="nonzero"/><path fill="#09090a" d="M 490.878906 502.398438 C 493.402344 503.46875 495.226562 505.105469 497.28125 506.878906 L 495.359375 507.519531 C 494.191406 506.789062 494.191406 506.789062 493 505.71875 L 491.792969 504.667969 L 490.878906 503.679688 Z M 490.878906 502.398438 " fill-opacity="1" fill-rule="nonzero"/><path fill="#080809" d="M 128.640625 215.679688 C 130.078125 215.847656 131.058594 216.21875 132.226562 217.074219 C 133.175781 217.878906 134.113281 218.691406 135.039062 219.519531 L 133.121094 220.160156 C 131.480469 218.960938 131.480469 218.960938 129.921875 217.601562 L 128.640625 216.960938 Z M 128.640625 215.679688 " fill-opacity="1" fill-rule="nonzero"/></svg>