<svg xmlns="http://www.w3.org/2000/svg" xmlns:xlink="http://www.w3.org/1999/xlink" width="1254" zoomAndPan="magnify" viewBox="0 0 940.5 940.499971" height="1254" preserveAspectRatio="xMidYMid meet" version="1.0"><path fill="#c66c40" d="M 58.066406 79.039062 L 62.15625 79.007812 L 66.851562 78.953125 L 72.011719 78.933594 L 77.4375 78.882812 C 83.382812 78.832031 89.328125 78.808594 95.269531 78.785156 L 101.410156 78.753906 C 111.023438 78.707031 120.636719 78.675781 130.253906 78.652344 C 141.347656 78.628906 152.445312 78.566406 163.542969 78.46875 C 172.121094 78.394531 180.699219 78.355469 189.277344 78.351562 C 194.398438 78.34375 199.523438 78.320312 204.644531 78.261719 C 209.464844 78.207031 214.285156 78.191406 219.105469 78.21875 C 220.875 78.21875 222.640625 78.203125 224.40625 78.171875 C 229.585938 78.078125 234.480469 78.125 239.523438 79.363281 C 243.03125 82.140625 244.878906 85.105469 246.816406 89.089844 C 247.75 90.710938 248.6875 92.332031 249.628906 93.949219 L 252.894531 100.027344 C 254.628906 103.175781 256.382812 106.316406 258.136719 109.449219 L 259.5625 111.992188 C 263.316406 118.648438 267.289062 125.132812 271.332031 131.613281 C 274.050781 136.089844 276.546875 140.65625 279.007812 145.277344 C 281.773438 150.328125 284.769531 155.242188 287.757812 160.164062 C 289.363281 163.242188 289.363281 163.242188 289.363281 166.886719 L 291.796875 166.886719 L 293.753906 170.617188 L 296.355469 175.546875 L 297.636719 178 C 300.289062 183.011719 303.199219 187.710938 306.382812 192.414062 C 307.449219 194.296875 308.488281 196.199219 309.496094 198.113281 C 312.945312 204.519531 316.554688 210.816406 320.210938 217.105469 L 321.972656 220.144531 L 325.441406 226.113281 C 330.167969 234.246094 334.824219 242.417969 339.417969 250.628906 L 342.167969 255.550781 L 343.523438 257.984375 C 345.886719 262.203125 348.324219 266.378906 350.835938 270.507812 L 352.375 273.023438 C 353.347656 274.613281 354.332031 276.195312 355.320312 277.769531 C 356.492188 279.671875 357.578125 281.625 358.652344 283.585938 L 358.652344 287.230469 L 361.085938 287.230469 C 366.808594 294.921875 370.773438 304.027344 374.925781 312.636719 C 376.585938 315.828125 378.371094 318.421875 380.535156 321.269531 C 381.371094 324.613281 381.371094 324.613281 381.75 327.347656 L 384.179688 327.347656 L 385.828125 330.417969 C 387.363281 333.273438 388.898438 336.128906 390.4375 338.980469 C 391.691406 341.300781 392.941406 343.625 394.183594 345.953125 C 397.941406 352.902344 402.167969 359.539062 406.382812 366.214844 C 410.042969 372.039062 413.480469 377.988281 416.699219 384.066406 C 418.097656 386.683594 419.578125 389.226562 421.105469 391.773438 C 423.082031 395.421875 423.082031 395.421875 423.082031 399.066406 L 425.511719 399.066406 L 427.605469 403.117188 C 432.480469 412.476562 437.40625 421.636719 443.246094 430.429688 C 444.832031 432.902344 446.238281 435.265625 447.390625 437.964844 L 447.390625 441.613281 L 449.824219 441.613281 C 450.84375 443.355469 451.859375 445.101562 452.863281 446.855469 L 454.570312 449.804688 C 455.902344 452.554688 455.902344 452.554688 455.902344 456.199219 L 458.332031 456.199219 C 459.554688 458.578125 460.769531 460.960938 461.980469 463.34375 L 464.03125 467.359375 C 465.625 470.789062 465.625 470.789062 465.625 473.21875 L 468.058594 473.21875 C 469.078125 474.960938 470.09375 476.710938 471.097656 478.460938 L 472.804688 481.410156 C 474.136719 484.160156 474.136719 484.160156 474.136719 487.804688 L 476.566406 487.804688 L 478.035156 490.515625 L 479.984375 494.113281 L 481.910156 497.660156 C 483.179688 499.957031 484.519531 502.210938 485.925781 504.429688 C 487.507812 507.257812 487.507812 507.257812 487.507812 510.902344 L 489.9375 510.902344 L 489.9375 515.765625 L 492.371094 515.765625 C 494.761719 519.863281 497.136719 523.96875 499.511719 528.074219 L 501.558594 531.578125 C 504.757812 537.132812 507.726562 542.339844 509.386719 548.585938 L 511.820312 548.585938 L 514.25 557.097656 L 516.683594 557.097656 L 518.554688 560.65625 L 521.089844 565.453125 L 522.308594 567.78125 C 525.265625 573.359375 528.445312 578.769531 531.714844 584.167969 C 533.851562 587.757812 535.949219 591.375 538.007812 595.011719 L 540.210938 598.867188 C 541.71875 601.5 543.214844 604.136719 544.707031 606.777344 L 546.894531 610.585938 L 548.859375 614.039062 L 550.71875 616.660156 L 554.367188 617.875 L 555.257812 615.429688 C 557.191406 610.867188 559.539062 606.621094 561.964844 602.300781 L 563.5625 599.4375 C 568.734375 590.214844 574.078125 581.09375 579.425781 571.972656 C 584.320312 563.613281 589.125 555.207031 593.871094 546.761719 C 599.894531 536.058594 606.03125 525.429688 612.234375 514.832031 C 617.355469 506.078125 622.457031 497.316406 627.53125 488.539062 C 628.714844 486.488281 629.902344 484.445312 631.089844 482.398438 L 633.28125 478.605469 L 635.210938 475.269531 C 639.03125 468.964844 639.03125 468.964844 640.890625 462 C 640.195312 457.148438 640.195312 457.148438 637.859375 452.949219 C 635.601562 450.953125 635.601562 450.953125 631.175781 450.121094 C 621.921875 449.316406 612.996094 453.902344 604.71875 457.601562 C 601.351562 458.78125 598.644531 458.957031 595.089844 458.9375 L 591.707031 458.957031 C 588.140625 458.605469 585.539062 457.773438 582.324219 456.199219 C 580.121094 453.769531 580.121094 453.769531 578.675781 451.339844 L 578.675781 448.90625 L 576.246094 448.90625 L 574.765625 446.222656 C 562.800781 424.511719 562.800781 424.511719 550.363281 403.070312 C 546.117188 395.921875 542.03125 388.6875 537.953125 381.441406 C 531.941406 370.769531 525.8125 360.164062 519.566406 349.621094 C 509.445312 332.492188 499.511719 315.265625 489.835938 297.875 C 485.195312 289.550781 480.421875 281.339844 475.425781 273.226562 C 473.328125 269.761719 471.394531 266.222656 469.46875 262.664062 C 465.675781 255.667969 461.683594 248.804688 457.648438 241.949219 C 451.910156 232.175781 446.265625 222.351562 440.707031 212.472656 C 435.347656 202.949219 429.902344 193.480469 424.371094 184.058594 C 418.5625 174.144531 412.863281 164.164062 407.277344 154.125 C 397.519531 136.605469 387.441406 119.285156 377.167969 102.066406 L 374.9375 98.324219 C 373.53125 95.960938 372.117188 93.601562 370.699219 91.246094 L 368.804688 88.074219 L 367.128906 85.277344 C 365.945312 83.011719 365.945312 83.011719 365.945312 80.578125 C 370.519531 79.519531 374.769531 79.199219 379.460938 79.175781 L 383.988281 79.144531 L 388.929688 79.128906 L 394.152344 79.097656 C 399.859375 79.066406 405.566406 79.050781 411.269531 79.03125 L 417.167969 79.011719 C 425.34375 78.984375 433.519531 78.964844 441.695312 78.949219 C 453.40625 78.929688 465.117188 78.886719 476.828125 78.820312 C 485.066406 78.773438 493.304688 78.746094 501.546875 78.742188 C 506.464844 78.738281 511.386719 78.722656 516.304688 78.683594 C 520.929688 78.648438 525.554688 78.636719 530.179688 78.652344 C 531.878906 78.652344 533.574219 78.644531 535.273438 78.625 C 537.589844 78.59375 539.90625 78.609375 542.222656 78.625 L 546.152344 78.613281 L 549.503906 79.363281 C 552.140625 82.101562 553.929688 84.382812 555.371094 87.898438 L 556.796875 93.949219 L 559.226562 93.949219 L 560.972656 97.296875 C 565.277344 105.503906 569.699219 113.601562 574.5 121.53125 L 575.875 123.804688 C 577.640625 126.71875 579.410156 129.628906 581.183594 132.535156 C 582.382812 134.511719 583.570312 136.488281 584.753906 138.472656 C 585.433594 139.589844 586.109375 140.710938 586.804688 141.863281 C 588.394531 144.988281 589.121094 147.632812 589.617188 151.085938 L 592.050781 151.085938 C 594.085938 154.648438 596.109375 158.222656 598.128906 161.796875 L 599.882812 164.867188 L 601.546875 167.824219 L 603.089844 170.542969 C 604.207031 172.964844 604.207031 172.964844 604.207031 176.613281 L 606.636719 176.613281 L 608.601562 180.40625 C 614.085938 190.910156 619.761719 201.222656 625.964844 211.320312 C 627.277344 213.496094 628.511719 215.714844 629.734375 217.941406 L 629.734375 221.589844 L 632.164062 221.589844 L 634.035156 225.152344 C 635.320312 227.585938 636.609375 230.019531 637.898438 232.453125 C 641.015625 238.304688 644.359375 244.019531 647.929688 249.605469 C 649.183594 251.980469 649.183594 251.980469 649.183594 255.625 L 651.613281 255.625 L 652.472656 257.472656 C 656.585938 266.007812 661.316406 274.140625 666.089844 282.316406 C 669.746094 288.582031 673.292969 294.90625 676.726562 301.296875 C 679.058594 305.519531 681.554688 309.632812 684.074219 313.742188 C 685.542969 316.222656 686.929688 318.628906 688.082031 321.269531 L 688.082031 324.914062 L 690.511719 324.914062 L 692.5625 328.839844 C 697.085938 337.449219 701.632812 346.03125 706.46875 354.46875 L 708.828125 358.589844 C 710.421875 361.308594 712.054688 364.007812 713.71875 366.683594 L 716.117188 370.578125 L 718.289062 374 C 719.6875 377.1875 719.6875 377.1875 719.570312 380.210938 C 718.238281 383.910156 716.410156 386.839844 714.21875 390.101562 C 711.902344 393.566406 710.066406 396.324219 708.746094 400.28125 L 706.316406 400.28125 L 705.347656 403.457031 C 701.707031 413.714844 695.613281 423.117188 689.960938 432.382812 C 688.160156 435.40625 686.457031 438.460938 684.78125 441.554688 C 680.441406 449.542969 676.070312 457.515625 671.671875 465.46875 L 670.496094 467.617188 C 666.199219 475.4375 661.800781 483.046875 656.757812 490.414062 C 654.917969 493.183594 653.464844 496.035156 652.070312 499.050781 C 642.648438 518.410156 631.230469 536.972656 619.820312 555.21875 C 615.476562 562.179688 611.382812 569.101562 607.863281 576.519531 C 606.636719 578.976562 606.636719 578.976562 604.207031 582.625 L 601.773438 582.625 L 600.558594 589.917969 L 598.128906 589.917969 L 597.847656 592.4375 C 596.648438 596.992188 594.289062 600.441406 591.667969 604.277344 C 588.191406 609.417969 585.109375 614.539062 582.394531 620.125 C 574.335938 636.519531 565.015625 652.300781 555.347656 667.789062 C 550.96875 674.835938 546.996094 682.105469 543.425781 689.597656 L 540.992188 689.597656 L 540.691406 692.179688 C 539.570312 696.472656 537.4375 699.34375 534.914062 702.96875 L 533.699219 706.613281 L 531.269531 706.613281 L 530.921875 708.59375 C 529.789062 712.359375 527.910156 715.339844 525.875 718.695312 C 523.210938 723.097656 520.886719 727.304688 519.113281 732.144531 L 516.683594 732.144531 L 516.246094 734.855469 C 515.472656 738.191406 514.4375 740.511719 512.730469 743.460938 L 511.074219 746.347656 C 509.558594 748.875 508.007812 751.382812 506.425781 753.871094 C 504.128906 757.496094 502.015625 761.183594 499.972656 764.953125 L 498.035156 768.523438 L 496.015625 772.257812 L 494.023438 775.941406 C 491.316406 780.949219 488.609375 785.957031 485.902344 790.96875 C 481.332031 799.417969 476.6875 807.800781 471.703125 816.019531 L 468.058594 814.804688 C 466.308594 812.179688 466.308594 812.179688 464.5 808.730469 L 462.476562 804.917969 L 460.386719 800.898438 C 456.070312 792.710938 451.726562 784.605469 446.90625 776.703125 C 443.335938 770.777344 439.929688 764.757812 436.5 758.75 C 435.238281 756.539062 433.976562 754.328125 432.710938 752.117188 C 428.308594 744.429688 423.992188 736.691406 419.761719 728.902344 C 417.867188 725.429688 415.933594 721.976562 413.964844 718.542969 L 412.78125 716.480469 C 410.066406 711.746094 407.316406 707.035156 404.558594 702.328125 C 397.261719 689.886719 390.066406 677.421875 383.179688 664.753906 C 378.898438 656.917969 374.425781 649.203125 369.898438 641.503906 C 362.910156 629.617188 356.164062 617.609375 349.492188 605.542969 C 343.175781 594.125 336.734375 582.789062 330.238281 571.476562 C 326.84375 565.558594 323.460938 559.636719 320.078125 553.714844 L 313.859375 542.832031 L 312.601562 540.625 L 305.050781 527.421875 C 296.390625 512.304688 287.777344 497.160156 279.207031 481.992188 C 274.992188 474.523438 270.753906 467.066406 266.496094 459.617188 L 264.71875 456.511719 C 262.054688 451.851562 259.386719 447.195312 256.71875 442.539062 C 247.265625 426.039062 237.859375 409.515625 228.589844 392.910156 C 221.78125 380.734375 214.859375 368.625 207.917969 356.519531 C 204.625 350.773438 201.332031 345.023438 198.042969 339.273438 L 196.769531 337.046875 C 191.863281 328.480469 187 319.890625 182.238281 311.238281 C 176.96875 301.667969 171.453125 292.25 165.921875 282.824219 C 160.769531 274.019531 155.746094 265.148438 150.785156 256.234375 C 145.226562 246.242188 139.554688 236.3125 133.765625 226.453125 C 127.238281 215.335938 120.898438 204.128906 114.632812 192.863281 C 109.660156 183.972656 104.589844 175.136719 99.425781 166.355469 C 93.542969 156.328125 87.792969 146.222656 82.175781 136.042969 C 72.109375 117.792969 61.753906 99.710938 51.105469 81.796875 C 54.753906 79.363281 54.753906 79.363281 58.066406 79.039062 M 672.277344 79.363281 L 887.441406 79.363281 C 886.328125 83.824219 885.078125 86.546875 882.800781 90.460938 L 880.625 94.222656 L 878.246094 98.28125 L 875.785156 102.519531 C 869.15625 113.917969 862.410156 125.25 855.667969 136.582031 C 848.378906 148.859375 841.34375 161.265625 834.363281 173.71875 C 827.757812 185.488281 820.984375 197.160156 814.199219 208.824219 L 811.980469 212.65625 C 806.09375 222.757812 806.09375 222.757812 803.285156 226.90625 C 801.121094 230.117188 799.246094 233.378906 797.410156 236.785156 L 795.535156 240.265625 C 793.695312 243.734375 791.914062 247.234375 790.191406 250.765625 L 787.761719 250.765625 L 787.347656 253.4375 C 786.507812 256.996094 785.261719 259.542969 783.429688 262.691406 L 781.753906 265.601562 L 780.46875 267.78125 L 778.035156 267.78125 C 768.671875 251.601562 759.351562 235.394531 750.078125 219.15625 C 742.96875 206.703125 735.824219 194.269531 728.648438 181.855469 C 723.324219 172.628906 718.027344 163.390625 712.753906 154.136719 C 709.179688 147.867188 705.574219 141.613281 701.941406 135.375 C 700.792969 133.402344 699.644531 131.433594 698.492188 129.460938 C 696.320312 125.730469 694.214844 122.019531 692.285156 118.152344 C 690.179688 113.953125 687.789062 109.964844 685.347656 105.957031 L 682.449219 101.144531 C 681.042969 98.8125 679.632812 96.484375 678.214844 94.15625 C 676.988281 92.144531 675.773438 90.121094 674.558594 88.101562 L 672.421875 84.582031 L 671.0625 81.796875 Z M 672.277344 79.363281 " fill-opacity="1" fill-rule="nonzero"/><path fill="#b05e37" d="M 672.277344 79.363281 C 675.050781 79.253906 677.820312 79.207031 680.59375 79.21875 L 683.257812 79.214844 C 686.230469 79.210938 689.199219 79.21875 692.167969 79.226562 L 698.527344 79.226562 C 704.300781 79.226562 710.074219 79.230469 715.851562 79.242188 C 721.878906 79.246094 727.902344 79.25 733.929688 79.25 C 745.351562 79.253906 756.773438 79.261719 768.195312 79.277344 C 781.195312 79.289062 794.195312 79.296875 807.195312 79.304688 C 833.945312 79.316406 860.691406 79.335938 887.441406 79.363281 C 886.488281 84.058594 884.488281 86.671875 881.363281 90.304688 L 879.449219 86.71875 L 876.5 83.011719 C 872.65625 81.890625 872.65625 81.890625 868.1875 82.035156 L 865.601562 81.984375 C 862.6875 81.9375 859.773438 81.945312 856.859375 81.953125 C 854.730469 81.929688 852.597656 81.90625 850.46875 81.878906 C 844.324219 81.8125 838.179688 81.800781 832.035156 81.796875 C 827.679688 81.796875 823.320312 81.777344 818.964844 81.761719 C 798.027344 81.675781 777.09375 81.675781 756.15625 81.707031 C 747.25 81.71875 738.339844 81.730469 729.433594 81.734375 C 711.191406 81.746094 692.949219 81.765625 674.710938 81.792969 L 673.496094 85.441406 L 671.0625 80.578125 Z M 672.277344 79.363281 " fill-opacity="1" fill-rule="nonzero"/><path fill="#ba5b2a" d="M 768.3125 248.332031 L 771.957031 250.765625 L 771.957031 253.195312 L 786.546875 253.195312 C 785.574219 257.074219 784.617188 259.75 782.824219 263.222656 L 781.488281 265.824219 L 780.46875 267.78125 L 778.035156 267.78125 C 776.410156 265 774.789062 262.214844 773.175781 259.425781 L 771.769531 257.027344 C 768.3125 251.039062 768.3125 251.039062 768.3125 248.332031 M 887.441406 79.363281 C 886.90625 82.96875 885.960938 84.578125 883.71875 87.570312 L 881.363281 90.304688 L 879.609375 86.71875 L 876.5 83.011719 C 872.902344 81.90625 869.394531 81.992188 865.65625 82.03125 L 862.488281 81.980469 C 859.15625 81.945312 855.824219 81.933594 852.492188 81.945312 C 850.230469 81.925781 847.96875 81.898438 845.707031 81.871094 C 840.167969 81.808594 834.632812 81.789062 829.09375 81.796875 L 829.09375 80.578125 C 838.394531 80.34375 847.695312 80.113281 856.996094 79.882812 L 870.367188 79.546875 C 876.058594 79.402344 881.75 79.34375 887.441406 79.363281 M 461.980469 801.433594 L 464.410156 801.433594 L 465.625 806.292969 L 475.351562 806.292969 C 474.6875 810.398438 474.070312 812.472656 471.703125 816.019531 L 468.058594 814.804688 C 466.371094 812.378906 466.371094 812.378906 464.792969 809.410156 L 463.179688 806.453125 C 461.980469 803.863281 461.980469 803.863281 461.980469 801.433594 M 63.261719 80.578125 L 60.832031 83.011719 L 55.96875 83.011719 L 57.183594 90.304688 C 54.445312 87.035156 52.464844 84.65625 51.105469 80.578125 C 55.597656 79.082031 58.648438 79.796875 63.261719 80.578125 M 796.269531 232.53125 L 798.703125 232.53125 C 797.171875 238.007812 795.171875 241.636719 791.410156 245.902344 C 790.648438 243.773438 790.648438 243.773438 790.191406 241.039062 C 791.332031 238.304688 791.332031 238.304688 792.625 236.175781 L 795.054688 236.175781 Z M 875.285156 96.382812 L 877.714844 96.382812 C 875.8125 101.617188 873.238281 106.183594 870.421875 110.96875 L 867.992188 108.539062 C 870.074219 104.167969 872.0625 100.027344 875.285156 96.382812 " fill-opacity="1" fill-rule="nonzero"/></svg>